<svg width="100" height="100" viewBox="0 0 100 100" fill="none" xmlns="http://www.w3.org/2000/svg">
<g id="Bicycle">
<path id="Vector" d="M81.25 45.3125C78.7357 45.3101 76.2519 45.8637 73.9766 46.9336L62.1094 26.5625H75C76.2432 26.5625 77.4355 27.0564 78.3146 27.9354C79.1936 28.8145 79.6875 30.0068 79.6875 31.25C79.6875 31.6644 79.8521 32.0618 80.1452 32.3549C80.4382 32.6479 80.8356 32.8125 81.25 32.8125C81.6644 32.8125 82.0618 32.6479 82.3549 32.3549C82.6479 32.0618 82.8125 31.6644 82.8125 31.25C82.8125 29.178 81.9894 27.1909 80.5243 25.7257C79.0592 24.2606 77.072 23.4375 75 23.4375H59.375C59.1009 23.4378 58.8316 23.5102 58.5943 23.6474C58.357 23.7847 58.16 23.982 58.023 24.2194C57.8861 24.4569 57.814 24.7263 57.8141 25.0004C57.8142 25.2745 57.8864 25.5438 58.0234 25.7812L63.9453 35.9375H37.8906L31.0391 24.2188C30.9021 23.9815 30.7051 23.7844 30.4678 23.6472C30.2306 23.5101 29.9615 23.4378 29.6875 23.4375H18.75C18.3356 23.4375 17.9382 23.6021 17.6452 23.8951C17.3521 24.1882 17.1875 24.5856 17.1875 25C17.1875 25.4144 17.3521 25.8118 17.6452 26.1049C17.9382 26.3979 18.3356 26.5625 18.75 26.5625H28.7891L35.1133 37.4063L27.5664 47.7539C23.7671 45.4469 19.2246 44.6937 14.884 45.6509C10.5435 46.6081 6.7391 49.2021 4.26254 52.8931C1.78597 56.5841 0.82793 61.0878 1.58775 65.4673C2.34756 69.8467 4.76673 73.7646 8.34188 76.4056C11.917 79.0467 16.3728 80.2075 20.7822 79.6467C25.1915 79.0858 29.2148 76.8464 32.015 73.3945C34.8151 69.9425 36.1764 65.5438 35.8156 61.1136C35.4549 56.6834 33.3999 52.5628 30.0781 49.6094L36.832 40.3516L50.2109 63.2812C50.3479 63.5185 50.5449 63.7156 50.7822 63.8528C51.0194 63.9899 51.2885 64.0622 51.5625 64.0625C51.8367 64.06 52.1056 63.9874 52.3438 63.8516C52.5215 63.7482 52.6771 63.6107 52.8016 63.4471C52.9261 63.2835 53.0171 63.0969 53.0694 62.898C53.1216 62.6992 53.1341 62.4919 53.1061 62.2882C53.0781 62.0845 53.0102 61.8883 52.9063 61.7109L39.6914 39.0547H65.7617L71.2735 48.5039C67.9355 50.8831 65.5577 54.3769 64.5692 58.355C63.5806 62.3331 64.0464 66.5335 65.8824 70.1984C67.7184 73.8633 70.8038 76.7514 74.5818 78.3415C78.3599 79.9317 82.5819 80.1192 86.4861 78.8703C90.3903 77.6214 93.7196 75.0183 95.8733 71.5306C98.027 68.0429 98.8634 63.9003 98.2314 59.8503C97.5995 55.8002 95.5409 52.1093 92.427 49.4435C89.3132 46.7778 85.3491 45.3126 81.25 45.3125ZM32.8125 62.5C32.8141 65.5929 31.796 68.6 29.9159 71.0558C28.0358 73.5116 25.3985 75.2791 22.4124 76.0846C19.4262 76.89 16.2578 76.6886 13.3977 75.5114C10.5376 74.3343 8.14541 72.247 6.59142 69.5729C5.03744 66.8988 4.40838 63.7869 4.80166 60.7192C5.19494 57.6514 6.58861 54.7989 8.76689 52.6032C10.9452 50.4076 13.7865 48.9913 16.8511 48.5736C19.9156 48.156 23.0324 48.7603 25.7188 50.293L17.4883 61.5781C17.2438 61.9128 17.1422 62.3308 17.206 62.7403C17.2697 63.1498 17.4935 63.5172 17.8281 63.7617C18.1628 64.0062 18.5808 64.1078 18.9903 64.044C19.3998 63.9803 19.7672 63.7565 20.0117 63.4219L28.2422 52.1328C29.6828 53.4482 30.8333 55.0495 31.6203 56.8346C32.4072 58.6197 32.8133 60.5492 32.8125 62.5ZM81.25 76.5625C78.2948 76.5606 75.4154 75.6278 73.0204 73.8965C70.6255 72.1652 68.8369 69.7235 67.9085 66.9179C66.98 64.1124 66.9591 61.0857 67.8485 58.2675C68.7379 55.4494 70.4926 52.9831 72.8633 51.2187L79.8945 63.2891C80.0315 63.5264 80.2285 63.7235 80.4658 63.8606C80.703 63.9977 80.9721 64.07 81.2461 64.0703C81.5203 64.0679 81.7892 63.9952 82.0274 63.8594C82.2051 63.756 82.3607 63.6185 82.4852 63.4549C82.6097 63.2913 82.7007 63.1047 82.753 62.9058C82.8052 62.707 82.8177 62.4997 82.7897 62.296C82.7617 62.0923 82.6938 61.8962 82.5899 61.7188L75.5586 49.6523C77.4734 48.8002 79.5545 48.3868 81.6496 48.4425C83.7448 48.4981 85.801 49.0214 87.6678 49.974C89.5347 50.9266 91.165 52.2845 92.4396 53.9483C93.7141 55.6121 94.6007 57.5397 95.0344 59.5902C95.468 61.6407 95.4379 63.7623 94.9461 65.7996C94.4544 67.837 93.5134 69.7387 92.1921 71.3656C90.8708 72.9925 89.2025 74.3034 87.3093 75.2026C85.4161 76.1018 83.3459 76.5664 81.25 76.5625Z" fill="#083050"/>
</g>
</svg>
