<svg width="100" height="100" viewBox="0 0 100 100" fill="none" xmlns="http://www.w3.org/2000/svg">
<g id="BoundingBox">
<path id="Vector" d="M84.9444 23H37.6667C37.1215 23 36.5987 23.2188 36.2132 23.6083C35.8277 23.9978 35.6111 24.5261 35.6111 25.0769V35.2538C33.2911 34.7722 31.2064 33.4969 29.7086 31.643C28.2108 29.7891 27.3915 27.4701 27.3889 25.0769C27.3889 24.5261 27.1723 23.9978 26.7868 23.6083C26.4013 23.2188 25.8785 23 25.3333 23H15.0556C14.5104 23 13.9876 23.2188 13.6021 23.6083C13.2166 23.9978 13 24.5261 13 25.0769V74.9231C13 75.4739 13.2166 76.0022 13.6021 76.3917C13.9876 76.7812 14.5104 77 15.0556 77H25.3333C25.8785 77 26.4013 76.7812 26.7868 76.3917C27.1723 76.0022 27.3889 75.4739 27.3889 74.9231C27.3915 72.5299 28.2108 70.2109 29.7086 68.357C31.2064 66.5031 33.2911 65.2278 35.6111 64.7462V74.9231C35.6111 75.4739 35.8277 76.0022 36.2132 76.3917C36.5987 76.7812 37.1215 77 37.6667 77H84.9444C85.4896 77 86.0125 76.7812 86.3979 76.3917C86.7834 76.0022 87 75.4739 87 74.9231V58.3077C87 57.7569 86.7834 57.2286 86.3979 56.8391C86.0125 56.4496 85.4896 56.2308 84.9444 56.2308H70.7015C71.1905 52.768 72.901 49.6002 75.518 47.3105C78.1351 45.0208 81.4826 43.7632 84.9444 43.7692C85.4896 43.7692 86.0125 43.5504 86.3979 43.1609C86.7834 42.7714 87 42.2431 87 41.6923V25.0769C87 24.5261 86.7834 23.9978 86.3979 23.6083C86.0125 23.2188 85.4896 23 84.9444 23ZM37.6667 60.3846C34.2077 60.389 30.8656 61.6502 28.2507 63.9381C25.6358 66.2259 23.9225 69.3877 23.4237 72.8462H17.1111V52.0769H27.4053V47.9231H17.1111V27.1538H23.4237C23.9225 30.6123 25.6358 33.7741 28.2507 36.0619C30.8656 38.3498 34.2077 39.611 37.6667 39.6154C38.2118 39.6154 38.7347 39.3966 39.1202 39.0071C39.5057 38.6176 39.7222 38.0893 39.7222 37.5385V27.1538H45.8889V47.9231H35.6111V52.0769H45.8889V72.8462H39.7222V62.4615C39.7222 61.9107 39.5057 61.3824 39.1202 60.9929C38.7347 60.6034 38.2118 60.3846 37.6667 60.3846ZM82.8889 39.7296C78.7181 40.194 74.8284 42.0804 71.8608 45.0777V45.0881C70.1414 46.823 68.7779 48.8838 67.8485 51.1524C66.919 53.4209 66.4419 55.8525 66.4444 58.3077C66.4444 58.8585 66.661 59.3868 67.0465 59.7763C67.432 60.1658 67.9548 60.3846 68.5 60.3846H82.8889V72.8462H50V27.1538H82.8889V39.7296Z" fill="#A7A9AC"/>
</g>
</svg>
