<svg width="100" height="100" viewBox="0 0 100 100" fill="none" xmlns="http://www.w3.org/2000/svg">
<g id="Champagne">
<path id="Vector" d="M55.5859 4.6875H38.164C37.8345 4.68774 37.5136 4.79214 37.247 4.98577C36.9804 5.17941 36.7818 5.45236 36.6797 5.76563C36.1133 7.51172 22.9297 48.6367 34.2851 64.2734C36.914 67.8867 40.625 69.8906 45.3125 70.2461V92.1875H37.5C37.0856 92.1875 36.6881 92.3521 36.3951 92.6451C36.1021 92.9382 35.9375 93.3356 35.9375 93.75C35.9375 94.1644 36.1021 94.5618 36.3951 94.8549C36.6881 95.1479 37.0856 95.3125 37.5 95.3125H56.25C56.6644 95.3125 57.0618 95.1479 57.3548 94.8549C57.6479 94.5618 57.8125 94.1644 57.8125 93.75C57.8125 93.3356 57.6479 92.9382 57.3548 92.6451C57.0618 92.3521 56.6644 92.1875 56.25 92.1875H48.4375V70.2461C53.125 69.8906 56.8359 67.9023 59.4609 64.2734C70.8203 48.6484 57.6367 7.51172 57.0703 5.76563C56.9681 5.45236 56.7696 5.17941 56.503 4.98577C56.2364 4.79214 55.9154 4.68774 55.5859 4.6875ZM39.3164 7.8125H54.4336C56.2886 13.9756 57.8078 20.2348 58.9843 26.5625H34.7656C35.9471 20.2358 37.4662 13.9769 39.3164 7.8125ZM56.9336 62.4336C54.6093 65.625 51.3203 67.1875 46.875 67.1875C42.4297 67.1875 39.1406 65.625 36.8164 62.4375C31.6406 55.3242 32.2656 41.6875 34.2187 29.6875H59.5351C62.0547 45.3125 61.1601 56.6172 56.9336 62.4336ZM89.0625 20.3125C89.0625 20.9306 88.8792 21.5348 88.5358 22.0487C88.1924 22.5626 87.7044 22.9631 87.1334 23.1996C86.5623 23.4361 85.934 23.498 85.3278 23.3775C84.7216 23.2569 84.1648 22.9592 83.7278 22.5222C83.2907 22.0852 82.9931 21.5283 82.8725 20.9222C82.7519 20.316 82.8138 19.6876 83.0503 19.1166C83.2869 18.5456 83.6874 18.0575 84.2013 17.7142C84.7152 17.3708 85.3194 17.1875 85.9375 17.1875C86.7663 17.1875 87.5611 17.5167 88.1472 18.1028C88.7332 18.6888 89.0625 19.4837 89.0625 20.3125ZM79.6875 7.8125C79.6875 8.43057 79.5042 9.03475 79.1608 9.54866C78.8174 10.0626 78.3294 10.4631 77.7584 10.6996C77.1873 10.9361 76.559 10.998 75.9528 10.8775C75.3466 10.7569 74.7898 10.4592 74.3528 10.0222C73.9157 9.58517 73.6181 9.02835 73.4975 8.42216C73.3769 7.81597 73.4388 7.18763 73.6753 6.61661C73.9119 6.04559 74.3124 5.55754 74.8263 5.21416C75.3402 4.87078 75.9444 4.6875 76.5625 4.6875C77.3913 4.6875 78.1861 5.01674 78.7722 5.60279C79.3582 6.18884 79.6875 6.9837 79.6875 7.8125ZM79.6875 39.0625C79.6875 39.6806 79.5042 40.2848 79.1608 40.7987C78.8174 41.3126 78.3294 41.7131 77.7584 41.9496C77.1873 42.1861 76.559 42.248 75.9528 42.1275C75.3466 42.0069 74.7898 41.7092 74.3528 41.2722C73.9157 40.8352 73.6181 40.2783 73.4975 39.6722C73.3769 39.066 73.4388 38.4376 73.6753 37.8666C73.9119 37.2956 74.3124 36.8075 74.8263 36.4642C75.3402 36.1208 75.9444 35.9375 76.5625 35.9375C77.3913 35.9375 78.1861 36.2667 78.7722 36.8528C79.3582 37.4388 79.6875 38.2337 79.6875 39.0625Z" fill="#083050"/>
</g>
</svg>
