<svg width="40" height="40" viewBox="0 0 40 40" fill="none" xmlns="http://www.w3.org/2000/svg">
<g id="ClockCountdown">
<path id="Vector" d="M35.9379 21.3266C35.6776 24.3549 34.5578 27.2458 32.7103 29.6593C30.8628 32.0727 28.3644 33.9083 25.509 34.95C22.6537 35.9917 19.5602 36.1963 16.5926 35.5396C13.625 34.8828 10.9067 33.3922 8.75747 31.243C6.60827 29.0938 5.11762 26.3755 4.4609 23.4078C3.80418 20.4402 4.00871 17.3467 5.05043 14.4914C6.09216 11.6361 7.92773 9.13769 10.3412 7.29016C12.7546 5.44264 15.6456 4.32286 18.6738 4.06258C18.9225 4.04186 19.1691 4.12076 19.3596 4.28192C19.5501 4.44309 19.6687 4.67331 19.6894 4.92195C19.7102 5.17059 19.6313 5.41728 19.4701 5.60775C19.3089 5.79821 19.0787 5.91686 18.8301 5.93758C16.157 6.16649 13.605 7.15416 11.4743 8.78436C9.34358 10.4146 7.72285 12.6195 6.80283 15.1396C5.88281 17.6597 5.70177 20.3902 6.28104 23.0097C6.8603 25.6293 8.17575 28.0288 10.0726 29.9261C11.9694 31.8233 14.3687 33.1392 16.9881 33.719C19.6076 34.2988 22.3381 34.1184 24.8584 33.1989C27.3787 32.2794 29.5839 30.6591 31.2146 28.5287C32.8452 26.3983 33.8334 23.8465 34.0629 21.1735C34.0731 21.0504 34.1075 20.9305 34.1641 20.8207C34.2207 20.7109 34.2984 20.6133 34.3927 20.5335C34.5832 20.3723 34.8299 20.2934 35.0785 20.3141C35.2016 20.3244 35.3215 20.3588 35.4313 20.4154C35.5411 20.472 35.6387 20.5497 35.7185 20.644C35.7983 20.7383 35.8588 20.8474 35.8964 20.9651C35.934 21.0827 35.9481 21.2066 35.9379 21.3298V21.3266ZM19.0629 11.2501V20.0001C19.0629 20.2487 19.1616 20.4872 19.3375 20.663C19.5133 20.8388 19.7517 20.9376 20.0004 20.9376H28.7504C28.999 20.9376 29.2375 20.8388 29.4133 20.663C29.5891 20.4872 29.6879 20.2487 29.6879 20.0001C29.6879 19.7514 29.5891 19.513 29.4133 19.3372C29.2375 19.1614 28.999 19.0626 28.7504 19.0626H20.9379V11.2501C20.9379 11.0014 20.8391 10.763 20.6633 10.5872C20.4875 10.4114 20.249 10.3126 20.0004 10.3126C19.7517 10.3126 19.5133 10.4114 19.3375 10.5872C19.1616 10.763 19.0629 11.0014 19.0629 11.2501ZM25.0004 7.18758C25.3094 7.18758 25.6115 7.09594 25.8685 6.92425C26.1254 6.75256 26.3257 6.50853 26.4439 6.22302C26.5622 5.93751 26.5931 5.62334 26.5328 5.32025C26.4726 5.01715 26.3237 4.73874 26.1052 4.52022C25.8867 4.3017 25.6083 4.15289 25.3052 4.0926C25.0021 4.03231 24.6879 4.06325 24.4024 4.18152C24.1169 4.29978 23.8729 4.50005 23.7012 4.757C23.5295 5.01395 23.4379 5.31604 23.4379 5.62508C23.4379 5.83027 23.4783 6.03345 23.5568 6.22302C23.6353 6.41259 23.7504 6.58484 23.8955 6.72993C24.1885 7.02296 24.586 7.18758 25.0004 7.18758ZM30.6254 10.9376C30.9344 10.9376 31.2365 10.8459 31.4935 10.6742C31.7504 10.5026 31.9507 10.2585 32.0689 9.97302C32.1872 9.68751 32.2181 9.37334 32.1578 9.07025C32.0976 8.76715 31.9487 8.48874 31.7302 8.27022C31.5117 8.0517 31.2333 7.90289 30.9302 7.8426C30.6271 7.78231 30.3129 7.81325 30.0274 7.93152C29.7419 8.04978 29.4979 8.25005 29.3262 8.507C29.1545 8.76395 29.0629 9.06604 29.0629 9.37508C29.0629 9.78948 29.2275 10.1869 29.5205 10.4799C29.8135 10.773 30.211 10.9376 30.6254 10.9376ZM34.3754 16.5626C34.6844 16.5626 34.9865 16.4709 35.2435 16.2992C35.5004 16.1276 35.7007 15.8835 35.8189 15.598C35.9372 15.3125 35.9681 14.9983 35.9078 14.6952C35.8476 14.3922 35.6987 14.1137 35.4802 13.8952C35.2617 13.6767 34.9833 13.5279 34.6802 13.4676C34.3771 13.4073 34.0629 13.4383 33.7774 13.5565C33.4919 13.6748 33.2479 13.875 33.0762 14.132C32.9045 14.389 32.8129 14.691 32.8129 15.0001C32.8129 15.4145 32.9775 15.8119 33.2705 16.1049C33.5635 16.398 33.961 16.5626 34.3754 16.5626Z" fill="#A7A9AC"/>
</g>
</svg>
