<svg width="80" height="80" viewBox="0 0 80 80" fill="none" xmlns="http://www.w3.org/2000/svg">
<g id="CurrencyDollar">
<path id="Vector" d="M47.5 38.125H41.875V16.875H45C47.8179 16.875 50.5204 17.9944 52.513 19.987C54.5056 21.9796 55.625 24.6821 55.625 27.5C55.625 27.9973 55.8225 28.4742 56.1742 28.8258C56.5258 29.1775 57.0027 29.375 57.5 29.375C57.9973 29.375 58.4742 29.1775 58.8258 28.8258C59.1775 28.4742 59.375 27.9973 59.375 27.5C59.37 23.689 57.8539 20.0356 55.1592 17.3408C52.4644 14.6461 48.811 13.13 45 13.125H41.875V7.5C41.875 7.00272 41.6775 6.52581 41.3258 6.17417C40.9742 5.82254 40.4973 5.625 40 5.625C39.5027 5.625 39.0258 5.82254 38.6742 6.17417C38.3225 6.52581 38.125 7.00272 38.125 7.5V13.125H35C31.1875 13.125 27.5312 14.6395 24.8353 17.3353C22.1395 20.0312 20.625 23.6875 20.625 27.5C20.625 31.3125 22.1395 34.9688 24.8353 37.6647C27.5312 40.3605 31.1875 41.875 35 41.875H38.125V63.125H32.5C29.6821 63.125 26.9796 62.0056 24.987 60.013C22.9944 58.0204 21.875 55.3179 21.875 52.5C21.875 52.0027 21.6775 51.5258 21.3258 51.1742C20.9742 50.8225 20.4973 50.625 20 50.625C19.5027 50.625 19.0258 50.8225 18.6742 51.1742C18.3225 51.5258 18.125 52.0027 18.125 52.5C18.13 56.311 19.6461 59.9644 22.3408 62.6592C25.0356 65.3539 28.689 66.87 32.5 66.875H38.125V72.5C38.125 72.9973 38.3225 73.4742 38.6742 73.8258C39.0258 74.1775 39.5027 74.375 40 74.375C40.4973 74.375 40.9742 74.1775 41.3258 73.8258C41.6775 73.4742 41.875 72.9973 41.875 72.5V66.875H47.5C51.3125 66.875 54.9688 65.3605 57.6647 62.6647C60.3605 59.9688 61.875 56.3125 61.875 52.5C61.875 48.6875 60.3605 45.0312 57.6647 42.3353C54.9688 39.6395 51.3125 38.125 47.5 38.125ZM35 38.125C32.1821 38.125 29.4796 37.0056 27.487 35.013C25.4944 33.0204 24.375 30.3179 24.375 27.5C24.375 24.6821 25.4944 21.9796 27.487 19.987C29.4796 17.9944 32.1821 16.875 35 16.875H38.125V38.125H35ZM47.5 63.125H41.875V41.875H47.5C50.3179 41.875 53.0204 42.9944 55.013 44.987C57.0056 46.9796 58.125 49.6821 58.125 52.5C58.125 55.3179 57.0056 58.0204 55.013 60.013C53.0204 62.0056 50.3179 63.125 47.5 63.125Z" fill="#2E3239"/>
</g>
</svg>
