<svg width="100" height="100" viewBox="0 0 100 100" fill="none" xmlns="http://www.w3.org/2000/svg">
<g id="Lockers">
<path id="Vector" d="M73.4375 28.125C73.4375 28.5394 73.2729 28.9368 72.9799 29.2299C72.6868 29.5229 72.2894 29.6875 71.875 29.6875H62.5C62.0856 29.6875 61.6882 29.5229 61.3951 29.2299C61.1021 28.9368 60.9375 28.5394 60.9375 28.125C60.9375 27.7106 61.1021 27.3132 61.3951 27.0201C61.6882 26.7271 62.0856 26.5625 62.5 26.5625H71.875C72.2894 26.5625 72.6868 26.7271 72.9799 27.0201C73.2729 27.3132 73.4375 27.7106 73.4375 28.125ZM71.875 39.0625H62.5C62.0856 39.0625 61.6882 39.2271 61.3951 39.5201C61.1021 39.8132 60.9375 40.2106 60.9375 40.625C60.9375 41.0394 61.1021 41.4368 61.3951 41.7299C61.6882 42.0229 62.0856 42.1875 62.5 42.1875H71.875C72.2894 42.1875 72.6868 42.0229 72.9799 41.7299C73.2729 41.4368 73.4375 41.0394 73.4375 40.625C73.4375 40.2106 73.2729 39.8132 72.9799 39.5201C72.6868 39.2271 72.2894 39.0625 71.875 39.0625ZM28.125 29.6875H37.5C37.9144 29.6875 38.3118 29.5229 38.6049 29.2299C38.8979 28.9368 39.0625 28.5394 39.0625 28.125C39.0625 27.7106 38.8979 27.3132 38.6049 27.0201C38.3118 26.7271 37.9144 26.5625 37.5 26.5625H28.125C27.7106 26.5625 27.3132 26.7271 27.0201 27.0201C26.7271 27.3132 26.5625 27.7106 26.5625 28.125C26.5625 28.5394 26.7271 28.9368 27.0201 29.2299C27.3132 29.5229 27.7106 29.6875 28.125 29.6875ZM37.5 39.0625H28.125C27.7106 39.0625 27.3132 39.2271 27.0201 39.5201C26.7271 39.8132 26.5625 40.2106 26.5625 40.625C26.5625 41.0394 26.7271 41.4368 27.0201 41.7299C27.3132 42.0229 27.7106 42.1875 28.125 42.1875H37.5C37.9144 42.1875 38.3118 42.0229 38.6049 41.7299C38.8979 41.4368 39.0625 41.0394 39.0625 40.625C39.0625 40.2106 38.8979 39.8132 38.6049 39.5201C38.3118 39.2271 37.9144 39.0625 37.5 39.0625ZM85.9375 18.75V87.5C85.9375 87.9144 85.7729 88.3118 85.4799 88.6049C85.1868 88.8979 84.7894 89.0625 84.375 89.0625C83.9606 89.0625 83.5632 88.8979 83.2701 88.6049C82.9771 88.3118 82.8125 87.9144 82.8125 87.5V79.6875H51.5625V87.5C51.5625 87.9144 51.3979 88.3118 51.1049 88.6049C50.8118 88.8979 50.4144 89.0625 50 89.0625C49.5856 89.0625 49.1882 88.8979 48.8951 88.6049C48.6021 88.3118 48.4375 87.9144 48.4375 87.5V79.6875H17.1875V87.5C17.1875 87.9144 17.0229 88.3118 16.7299 88.6049C16.4368 88.8979 16.0394 89.0625 15.625 89.0625C15.2106 89.0625 14.8132 88.8979 14.5201 88.6049C14.2271 88.3118 14.0625 87.9144 14.0625 87.5V18.75C14.0625 17.5068 14.5564 16.3145 15.4354 15.4354C16.3145 14.5564 17.5068 14.0625 18.75 14.0625H81.25C82.4932 14.0625 83.6855 14.5564 84.5646 15.4354C85.4436 16.3145 85.9375 17.5068 85.9375 18.75ZM48.4375 76.5625V17.1875H18.75C18.3356 17.1875 17.9382 17.3521 17.6451 17.6451C17.3521 17.9382 17.1875 18.3356 17.1875 18.75V76.5625H48.4375ZM51.5625 76.5625H82.8125V18.75C82.8125 18.3356 82.6479 17.9382 82.3549 17.6451C82.0618 17.3521 81.6644 17.1875 81.25 17.1875H51.5625V76.5625Z" fill="#083050"/>
</g>
</svg>
