<svg width="40" height="40" viewBox="0 0 40 40" fill="none" xmlns="http://www.w3.org/2000/svg">
<g id="VideoCamera">
<path id="Vector" d="M39.1922 11.6734C39.0425 11.5934 38.874 11.5555 38.7045 11.5637C38.5349 11.572 38.3709 11.6261 38.2297 11.7203L32.1875 15.7484V11.25C32.1875 10.6698 31.957 10.1134 31.5468 9.7032C31.1366 9.29297 30.5802 9.0625 30 9.0625H5C4.41984 9.0625 3.86344 9.29297 3.4532 9.7032C3.04297 10.1134 2.8125 10.6698 2.8125 11.25V28.75C2.8125 29.3302 3.04297 29.8866 3.4532 30.2968C3.86344 30.707 4.41984 30.9375 5 30.9375H30C30.5802 30.9375 31.1366 30.707 31.5468 30.2968C31.957 29.8866 32.1875 29.3302 32.1875 28.75V24.2516L38.2297 28.2812C38.371 28.3755 38.5352 28.4296 38.7048 28.4378C38.8745 28.446 39.0431 28.4079 39.1928 28.3277C39.3425 28.2475 39.4676 28.1281 39.5547 27.9823C39.6419 27.8365 39.6878 27.6698 39.6875 27.5V12.5C39.6875 12.3303 39.6414 12.1638 39.5542 12.0182C39.4669 11.8726 39.3418 11.7535 39.1922 11.6734ZM30.3125 28.75C30.3125 28.8329 30.2796 28.9124 30.221 28.971C30.1624 29.0296 30.0829 29.0625 30 29.0625H5C4.91712 29.0625 4.83763 29.0296 4.77903 28.971C4.72042 28.9124 4.6875 28.8329 4.6875 28.75V11.25C4.6875 11.1671 4.72042 11.0876 4.77903 11.029C4.83763 10.9704 4.91712 10.9375 5 10.9375H30C30.0829 10.9375 30.1624 10.9704 30.221 11.029C30.2796 11.0876 30.3125 11.1671 30.3125 11.25V28.75ZM37.8125 25.7484L32.1875 21.9984V18.0016L37.8125 14.2516V25.7484Z" fill="#A7A9AC"/>
</g>
</svg>
