<svg width="125" height="44" viewBox="0 0 125 44" fill="none" xmlns="http://www.w3.org/2000/svg">
<rect width="125" height="44" rx="5" fill="black"/>
<path d="M26.3086 22.7625C26.3205 21.8426 26.5648 20.9406 27.0189 20.1405C27.473 19.3405 28.1222 18.6682 28.9059 18.1864C28.408 17.4753 27.7512 16.8902 26.9876 16.4774C26.224 16.0646 25.3747 15.8355 24.5071 15.8083C22.6563 15.6141 20.8621 16.9158 19.919 16.9158C18.9576 16.9158 17.5056 15.8276 15.9419 15.8598C14.9305 15.8925 13.9449 16.1866 13.0809 16.7135C12.217 17.2404 11.5043 17.982 11.0122 18.8663C8.88066 22.5567 10.4706 27.9803 12.5124 30.9634C13.534 32.4241 14.7279 34.0558 16.2901 33.9979C17.8189 33.9345 18.3898 33.0231 20.2351 33.0231C22.0633 33.0231 22.599 33.9979 24.1929 33.9611C25.8333 33.9345 26.8668 32.4939 27.8525 31.0194C28.5865 29.9785 29.1513 28.8282 29.526 27.611C28.573 27.2079 27.7597 26.5332 27.1876 25.671C26.6154 24.8088 26.3097 23.7973 26.3086 22.7625Z" fill="white"/>
<path d="M23.2993 13.8471C24.1937 12.7734 24.6344 11.3934 24.5277 10C23.1612 10.1435 21.899 10.7966 20.9925 11.8291C20.5493 12.3335 20.2098 12.9203 19.9935 13.556C19.7773 14.1917 19.6884 14.8638 19.732 15.5338C20.4155 15.5409 21.0916 15.3927 21.7095 15.1006C22.3275 14.8084 22.871 14.3798 23.2993 13.8471Z" fill="white"/>
<path d="M46.2461 27.9161H41.6057L40.4914 31.1313H38.5259L42.9211 19.2358H44.9632L49.3585 31.1313H47.3595L46.2461 27.9161ZM42.0863 26.4325H45.7646L43.9513 21.2144H43.9006L42.0863 26.4325Z" fill="white"/>
<path d="M58.8509 26.7949C58.8509 29.49 57.3747 31.2216 55.1469 31.2216C54.5826 31.2504 54.0213 31.1234 53.5274 30.8551C53.0335 30.5867 52.627 30.1879 52.3543 29.7042H52.3121V33.9999H50.4902V22.4581H52.2537V23.9006H52.2872C52.5725 23.4192 52.9859 23.0225 53.4836 22.7525C53.9812 22.4825 54.5445 22.3494 55.1134 22.3673C57.366 22.3673 58.8509 24.1073 58.8509 26.7949ZM56.9783 26.7949C56.9783 25.0391 56.0497 23.8847 54.6328 23.8847C53.2408 23.8847 52.3045 25.0634 52.3045 26.7949C52.3045 28.5424 53.2408 29.7127 54.6328 29.7127C56.0497 29.7127 56.9783 28.5667 56.9783 26.7949Z" fill="white"/>
<path d="M68.621 26.7949C68.621 29.49 67.1447 31.2216 64.9169 31.2216C64.3526 31.2504 63.7913 31.1234 63.2974 30.855C62.8035 30.5867 62.397 30.1879 62.1243 29.7042H62.0821V33.9999H60.2603V22.4581H62.0237V23.9006H62.0572C62.3425 23.4192 62.7559 23.0225 63.2536 22.7525C63.7512 22.4825 64.3145 22.3494 64.8834 22.3673C67.1361 22.3673 68.621 24.1073 68.621 26.7949ZM66.7483 26.7949C66.7483 25.039 65.8197 23.8847 64.4028 23.8847C63.0108 23.8847 62.0745 25.0634 62.0745 26.7949C62.0745 28.5424 63.0108 29.7127 64.4028 29.7127C65.8197 29.7127 66.7484 28.5667 66.7484 26.7949H66.7483Z" fill="white"/>
<path d="M75.0779 27.8171C75.2129 28.9967 76.3856 29.7712 77.9883 29.7712C79.5239 29.7712 80.6287 28.9967 80.6287 27.933C80.6287 27.0097 79.9623 26.4569 78.3846 26.078L76.8069 25.7066C74.5714 25.179 73.5336 24.1574 73.5336 22.4998C73.5336 20.4474 75.3641 19.0376 77.9634 19.0376C80.5358 19.0376 82.2993 20.4474 82.3586 22.4998H80.5195C80.4094 21.3127 79.4051 20.5961 77.9375 20.5961C76.4699 20.5961 75.4656 21.3211 75.4656 22.3763C75.4656 23.2173 76.107 23.7122 77.6761 24.091L79.0174 24.4128C81.5152 24.99 82.553 25.9704 82.553 27.7103C82.553 29.9358 80.7387 31.3297 77.8532 31.3297C75.1535 31.3297 73.3306 29.9686 73.2129 27.817L75.0779 27.8171Z" fill="white"/>
<path d="M86.4848 20.4067V22.4592H88.1726V23.8689H86.4848V28.6501C86.4848 29.3929 86.8227 29.739 87.5647 29.739C87.7651 29.7356 87.9651 29.7219 88.164 29.6978V31.0992C87.8304 31.1601 87.4914 31.1877 87.1521 31.1815C85.3551 31.1815 84.6543 30.522 84.6543 28.84V23.8689H83.3638V22.4592H84.6543V20.4067H86.4848Z" fill="white"/>
<path d="M89.1489 26.7955C89.1489 24.0668 90.7937 22.3521 93.3585 22.3521C95.9319 22.3521 97.569 24.0667 97.569 26.7955C97.569 29.5318 95.9405 31.239 93.3585 31.239C90.7774 31.239 89.1489 29.5318 89.1489 26.7955ZM95.7126 26.7955C95.7126 24.9237 94.8347 23.8189 93.3585 23.8189C91.8822 23.8189 91.0053 24.9321 91.0053 26.7955C91.0053 28.6749 91.8822 29.7713 93.3585 29.7713C94.8347 29.7713 95.7126 28.6749 95.7126 26.7955H95.7126Z" fill="white"/>
<path d="M99.0708 22.4585H100.808V23.9346H100.851C100.968 23.4736 101.245 23.0662 101.633 22.7808C102.022 22.4955 102.5 22.3496 102.986 22.3677C103.195 22.367 103.405 22.3893 103.61 22.4341V24.0993C103.345 24.0201 103.068 23.9838 102.791 23.9917C102.526 23.9812 102.263 24.0268 102.018 24.1254C101.773 24.2239 101.553 24.3731 101.372 24.5627C101.192 24.7522 101.056 24.9777 100.973 25.2236C100.89 25.4694 100.863 25.7299 100.893 25.9871V31.1312H99.0708L99.0708 22.4585Z" fill="white"/>
<path d="M112.011 28.5842C111.766 30.1586 110.197 31.239 108.189 31.239C105.607 31.239 104.004 29.5486 104.004 26.8367C104.004 24.1164 105.616 22.3521 108.112 22.3521C110.568 22.3521 112.112 24.0004 112.112 26.63V27.2399H105.844V27.3475C105.815 27.6667 105.855 27.9882 105.963 28.2908C106.071 28.5933 106.244 28.8699 106.47 29.1023C106.696 29.3346 106.97 29.5174 107.273 29.6383C107.577 29.7593 107.903 29.8158 108.231 29.804C108.662 29.8434 109.094 29.746 109.463 29.5262C109.832 29.3064 110.119 28.976 110.281 28.5842L112.011 28.5842ZM105.852 25.9957H110.29C110.306 25.7087 110.261 25.4215 110.159 25.1522C110.056 24.8828 109.898 24.637 109.693 24.4303C109.489 24.2237 109.243 24.0605 108.971 23.9511C108.699 23.8417 108.407 23.7884 108.112 23.7946C107.816 23.7928 107.522 23.8485 107.247 23.9584C106.973 24.0683 106.723 24.2303 106.513 24.4349C106.303 24.6396 106.136 24.8829 106.023 25.1508C105.909 25.4186 105.851 25.7058 105.852 25.9957V25.9957Z" fill="white"/>
<path d="M41.8595 10.2833C42.2414 10.2566 42.6247 10.3129 42.9817 10.4484C43.3386 10.5839 43.6604 10.7951 43.9237 11.0668C44.187 11.3385 44.3853 11.6639 44.5043 12.0195C44.6233 12.3752 44.6601 12.7522 44.6119 13.1234C44.6119 14.9495 43.6019 15.9991 41.8595 15.9991H39.7466V10.2833H41.8595ZM40.6551 15.1908H41.758C42.0309 15.2067 42.3041 15.163 42.5575 15.0628C42.811 14.9626 43.0384 14.8084 43.2232 14.6115C43.408 14.4146 43.5455 14.1799 43.6257 13.9245C43.706 13.6691 43.7269 13.3994 43.6871 13.1351C43.7241 12.8718 43.701 12.6038 43.6195 12.3503C43.538 12.0968 43.4001 11.864 43.2158 11.6686C43.0314 11.4733 42.8051 11.3202 42.5531 11.2203C42.301 11.1205 42.0295 11.0763 41.758 11.0911H40.6551V15.1908Z" fill="white"/>
<path d="M45.6383 13.8396C45.6105 13.5562 45.6437 13.2702 45.7357 13C45.8277 12.7298 45.9765 12.4813 46.1725 12.2706C46.3685 12.0599 46.6074 11.8915 46.8739 11.7763C47.1404 11.6611 47.4286 11.6016 47.7201 11.6016C48.0115 11.6016 48.2997 11.6611 48.5662 11.7763C48.8327 11.8915 49.0716 12.0599 49.2676 12.2706C49.4637 12.4813 49.6124 12.7298 49.7044 13C49.7964 13.2702 49.8296 13.5562 49.8018 13.8396C49.8301 14.1234 49.7973 14.4098 49.7056 14.6804C49.6138 14.9511 49.4651 15.2 49.2691 15.4111C49.073 15.6222 48.8339 15.791 48.5672 15.9064C48.3004 16.0219 48.0118 16.0815 47.7201 16.0815C47.4283 16.0815 47.1397 16.0219 46.873 15.9064C46.6062 15.791 46.3671 15.6222 46.171 15.4111C45.975 15.2 45.8263 14.9511 45.7345 14.6804C45.6428 14.4098 45.61 14.1234 45.6383 13.8396ZM48.9057 13.8396C48.9057 12.9046 48.4759 12.3579 47.7215 12.3579C46.9642 12.3579 46.5382 12.9046 46.5382 13.8396C46.5382 14.7821 46.9642 15.3247 47.7215 15.3247C48.4759 15.3247 48.9058 14.7784 48.9058 13.8396H48.9057Z" fill="white"/>
<path d="M55.3367 15.9976H54.4329L53.5206 12.8207H53.4516L52.5431 15.9976H51.648L50.4312 11.6841H51.3148L52.1056 14.9755H52.1707L53.0783 11.6841H53.9141L54.8216 14.9755H54.8906L55.6775 11.6841H56.5487L55.3367 15.9976Z" fill="white"/>
<path d="M57.5723 11.6842H58.4109V12.3694H58.476C58.5865 12.1233 58.7727 11.917 59.0089 11.7792C59.245 11.6415 59.5192 11.5792 59.7934 11.6009C60.0081 11.5851 60.2238 11.6168 60.4244 11.6935C60.625 11.7702 60.8053 11.8901 60.9521 12.0442C61.0988 12.1982 61.2082 12.3826 61.2721 12.5836C61.336 12.7846 61.3528 12.9971 61.3213 13.2053V15.9976H60.4501V13.419C60.4501 12.7258 60.1418 12.3811 59.4975 12.3811C59.3517 12.3745 59.2061 12.3987 59.0708 12.4522C58.9354 12.5057 58.8135 12.5871 58.7134 12.691C58.6133 12.7948 58.5373 12.9185 58.4907 13.0537C58.4441 13.1889 58.428 13.3324 58.4435 13.4742V15.9977H57.5723L57.5723 11.6842Z" fill="white"/>
<path d="M62.709 10H63.5802V15.9973H62.709V10Z" fill="white"/>
<path d="M64.7916 13.8397C64.7638 13.5562 64.797 13.2702 64.8891 13C64.9811 12.7298 65.1299 12.4813 65.3259 12.2706C65.5219 12.0599 65.7609 11.8915 66.0274 11.7763C66.2939 11.6611 66.5822 11.6016 66.8736 11.6016C67.165 11.6016 67.4533 11.6611 67.7198 11.7763C67.9863 11.8915 68.2253 12.0599 68.4213 12.2706C68.6173 12.4813 68.7661 12.7298 68.8581 13C68.9501 13.2702 68.9834 13.5562 68.9556 13.8397C68.9839 14.1235 68.951 14.4099 68.8593 14.6805C68.7675 14.9512 68.6188 15.2 68.4227 15.4112C68.2266 15.6223 67.9875 15.791 67.7207 15.9065C67.4539 16.0219 67.1654 16.0816 66.8736 16.0816C66.5818 16.0816 66.2933 16.0219 66.0265 15.9065C65.7597 15.791 65.5206 15.6223 65.3245 15.4112C65.1284 15.2 64.9797 14.9512 64.8879 14.6805C64.7961 14.4099 64.7633 14.1235 64.7916 13.8397ZM68.059 13.8397C68.059 12.9047 67.6292 12.3579 66.8748 12.3579C66.1175 12.3579 65.6915 12.9047 65.6915 13.8397C65.6915 14.7822 66.1175 15.3248 66.8748 15.3248C67.6292 15.3248 68.0591 14.7785 68.0591 13.8397H68.059Z" fill="white"/>
<path d="M69.8711 14.7784C69.8711 14.002 70.4627 13.5544 71.513 13.4907L72.7087 13.4234V13.0511C72.7087 12.5955 72.4005 12.3382 71.805 12.3382C71.3186 12.3382 70.9816 12.5127 70.8849 12.8177H70.0415C70.1305 12.0768 70.8438 11.6016 71.8452 11.6016C72.9519 11.6016 73.5761 12.1399 73.5761 13.0511V15.9983H72.7374V15.3921H72.6685C72.5286 15.6095 72.3321 15.7868 72.0992 15.9058C71.8662 16.0248 71.6051 16.0812 71.3426 16.0694C71.1572 16.0882 70.9699 16.0689 70.7927 16.0126C70.6155 15.9564 70.4523 15.8645 70.3137 15.7429C70.1751 15.6213 70.0641 15.4726 69.9878 15.3065C69.9116 15.1404 69.8718 14.9605 69.8711 14.7784ZM72.7087 14.4098V14.0492L71.6307 14.1166C71.0228 14.1563 70.7471 14.3584 70.7471 14.7387C70.7471 15.1269 71.0917 15.3528 71.5657 15.3528C71.7045 15.3665 71.8448 15.3528 71.9781 15.3125C72.1115 15.2722 72.2351 15.2061 72.3418 15.1181C72.4484 15.0301 72.5359 14.9221 72.5989 14.8004C72.6619 14.6787 72.6993 14.5459 72.7087 14.4098Z" fill="white"/>
<path d="M74.7227 13.8387C74.7227 12.4757 75.4397 11.6123 76.5551 11.6123C76.8309 11.5999 77.1047 11.6644 77.3445 11.7985C77.5842 11.9325 77.7799 12.1304 77.9088 12.3691H77.9739V10H78.8451V15.9973H78.0103V15.3158H77.9413C77.8025 15.5529 77.6 15.7483 77.3556 15.881C77.1112 16.0137 76.8344 16.0785 76.5551 16.0684C75.4321 16.0685 74.7227 15.205 74.7227 13.8387ZM75.6226 13.8387C75.6226 14.7536 76.064 15.3042 76.8021 15.3042C77.5364 15.3042 77.9902 14.7457 77.9902 13.8425C77.9902 12.9435 77.5316 12.3771 76.8021 12.3771C76.0687 12.3771 75.6226 12.9313 75.6226 13.8387H75.6226Z" fill="white"/>
<path d="M82.4488 13.8396C82.4211 13.5562 82.4542 13.2702 82.5462 13C82.6382 12.7298 82.787 12.4813 82.983 12.2706C83.179 12.0599 83.418 11.8915 83.6845 11.7763C83.951 11.6611 84.2392 11.6016 84.5306 11.6016C84.822 11.6016 85.1102 11.6611 85.3767 11.7763C85.6433 11.8915 85.8822 12.0599 86.0782 12.2706C86.2742 12.4813 86.423 12.7298 86.515 13C86.607 13.2702 86.6402 13.5562 86.6124 13.8396C86.6407 14.1234 86.6079 14.4098 86.5161 14.6804C86.4244 14.9511 86.2757 15.2 86.0796 15.4111C85.8836 15.6222 85.6445 15.791 85.3777 15.9064C85.1109 16.0219 84.8224 16.0815 84.5306 16.0815C84.2388 16.0815 83.9503 16.0219 83.6835 15.9064C83.4167 15.791 83.1776 15.6222 82.9816 15.4111C82.7855 15.2 82.6368 14.9511 82.5451 14.6804C82.4533 14.4098 82.4205 14.1234 82.4488 13.8396ZM85.7163 13.8396C85.7163 12.9046 85.2864 12.3579 84.532 12.3579C83.7748 12.3579 83.3488 12.9046 83.3488 13.8396C83.3488 14.7821 83.7748 15.3247 84.532 15.3247C85.2864 15.3247 85.7163 14.7784 85.7163 13.8396Z" fill="white"/>
<path d="M87.7817 11.6842H88.6204V12.3694H88.6855C88.7959 12.1233 88.9822 11.917 89.2183 11.7792C89.4545 11.6415 89.7287 11.5792 90.0028 11.6009C90.2176 11.5851 90.4333 11.6168 90.6339 11.6935C90.8344 11.7702 91.0148 11.8901 91.1615 12.0442C91.3083 12.1982 91.4177 12.3826 91.4816 12.5836C91.5455 12.7846 91.5623 12.9971 91.5308 13.2053V15.9976H90.6596V13.419C90.6596 12.7258 90.3513 12.3811 89.707 12.3811C89.5612 12.3745 89.4156 12.3987 89.2802 12.4522C89.1449 12.5057 89.023 12.5871 88.9229 12.691C88.8228 12.7948 88.7468 12.9185 88.7002 13.0537C88.6536 13.1889 88.6375 13.3324 88.6529 13.4742V15.9977H87.7817V11.6842Z" fill="white"/>
<path d="M96.4533 10.6108V11.7044H97.4097V12.4215H96.4533V14.6395C96.4533 15.0913 96.6438 15.2891 97.0775 15.2891C97.1886 15.2888 97.2995 15.2822 97.4097 15.2695V15.9786C97.2533 16.0059 97.0948 16.0205 96.9358 16.0221C95.967 16.0221 95.5812 15.689 95.5812 14.8574V12.4214H94.8804V11.7044H95.5812V10.6108H96.4533Z" fill="white"/>
<path d="M98.5996 10H99.4632V12.377H99.5321C99.6479 12.1286 99.8393 11.9212 100.08 11.7829C100.321 11.6446 100.6 11.5823 100.878 11.6043C101.092 11.593 101.305 11.6278 101.504 11.7064C101.702 11.785 101.88 11.9054 102.025 12.059C102.171 12.2126 102.279 12.3956 102.344 12.595C102.408 12.7944 102.427 13.0052 102.398 13.2124V15.9973H101.526V13.4224C101.526 12.7334 101.198 12.3845 100.582 12.3845C100.433 12.3725 100.282 12.3926 100.141 12.4435C100 12.4943 99.8722 12.5746 99.7663 12.6787C99.6605 12.7829 99.5792 12.9084 99.5281 13.0465C99.4771 13.1846 99.4575 13.3319 99.4708 13.4781V15.9973H98.5996L98.5996 10Z" fill="white"/>
<path d="M107.479 14.8337C107.36 15.2279 107.104 15.5689 106.754 15.7971C106.404 16.0252 105.984 16.1259 105.566 16.0816C105.275 16.0891 104.986 16.0347 104.719 15.9221C104.452 15.8095 104.213 15.6415 104.019 15.4296C103.825 15.2178 103.68 14.9673 103.595 14.6954C103.51 14.4235 103.487 14.1368 103.527 13.8552C103.488 13.5727 103.512 13.2854 103.597 13.0127C103.681 12.74 103.825 12.4883 104.018 12.2746C104.211 12.0609 104.449 11.8902 104.715 11.7741C104.982 11.658 105.27 11.5992 105.562 11.6016C106.79 11.6016 107.531 12.4216 107.531 13.7761V14.0732H104.414V14.1209C104.4 14.2792 104.421 14.4385 104.474 14.5887C104.527 14.7388 104.612 14.8765 104.722 14.9928C104.833 15.1092 104.967 15.2016 105.117 15.2643C105.266 15.3269 105.427 15.3584 105.59 15.3566C105.798 15.381 106.009 15.3444 106.196 15.2513C106.383 15.1581 106.538 15.0128 106.64 14.8337L107.479 14.8337ZM104.414 13.4436H106.644C106.655 13.2988 106.635 13.1534 106.585 13.0167C106.535 12.88 106.456 12.755 106.354 12.6497C106.251 12.5445 106.128 12.4614 105.99 12.4056C105.853 12.3499 105.706 12.3228 105.557 12.3262C105.407 12.3243 105.257 12.352 105.117 12.4075C104.978 12.463 104.851 12.5452 104.745 12.6494C104.638 12.7535 104.554 12.8774 104.497 13.0138C104.44 13.1502 104.412 13.2963 104.414 13.4436H104.414Z" fill="white"/>
</svg>
