<svg width="80" height="80" viewBox="0 0 80 80" fill="none" xmlns="http://www.w3.org/2000/svg">
<g id="Building">
<path id="Vector" d="M73.75 72.5H70V28.75C70 28.4185 69.8683 28.1005 69.6339 27.8661C69.3995 27.6317 69.0815 27.5 68.75 27.5H65V23.75C65 23.4185 64.8683 23.1005 64.6339 22.8661C64.3995 22.6317 64.0815 22.5 63.75 22.5H60V18.75C60 18.4185 59.8683 18.1005 59.6339 17.8661C59.3995 17.6317 59.0815 17.5 58.75 17.5H56.25V13.75C56.25 13.4185 56.1183 13.1005 55.8839 12.8661C55.6495 12.6317 55.3315 12.5 55 12.5C54.6685 12.5 54.3505 12.6317 54.1161 12.8661C53.8817 13.1005 53.75 13.4185 53.75 13.75V17.5H51.25C50.9185 17.5 50.6005 17.6317 50.3661 17.8661C50.1317 18.1005 50 18.4185 50 18.75V22.5H47.5V6.25C47.5 5.91848 47.3683 5.60054 47.1339 5.36612C46.8995 5.1317 46.5815 5 46.25 5H11.25C10.9185 5 10.6005 5.1317 10.3661 5.36612C10.1317 5.60054 10 5.91848 10 6.25V72.5H6.25C5.91848 72.5 5.60054 72.6317 5.36612 72.8661C5.1317 73.1005 5 73.4185 5 73.75C5 74.0815 5.1317 74.3995 5.36612 74.6339C5.60054 74.8683 5.91848 75 6.25 75H73.75C74.0815 75 74.3995 74.8683 74.6339 74.6339C74.8683 74.3995 75 74.0815 75 73.75C75 73.4185 74.8683 73.1005 74.6339 72.8661C74.3995 72.6317 74.0815 72.5 73.75 72.5ZM52.5 20H57.5V22.5H52.5V20ZM62.5 25V27.5H47.5V25H62.5ZM12.5 7.5H45V27.5H18.75C18.4185 27.5 18.1005 27.6317 17.8661 27.8661C17.6317 28.1005 17.5 28.4185 17.5 28.75C17.5 29.0815 17.6317 29.3995 17.8661 29.6339C18.1005 29.8683 18.4185 30 18.75 30H40V35H18.75C18.4185 35 18.1005 35.1317 17.8661 35.3661C17.6317 35.6005 17.5 35.9185 17.5 36.25C17.5 36.5815 17.6317 36.8995 17.8661 37.1339C18.1005 37.3683 18.4185 37.5 18.75 37.5H40V42.5H18.75C18.4185 42.5 18.1005 42.6317 17.8661 42.8661C17.6317 43.1005 17.5 43.4185 17.5 43.75C17.5 44.0815 17.6317 44.3995 17.8661 44.6339C18.1005 44.8683 18.4185 45 18.75 45H40V50H18.75C18.4185 50 18.1005 50.1317 17.8661 50.3661C17.6317 50.6005 17.5 50.9185 17.5 51.25C17.5 51.5815 17.6317 51.8995 17.8661 52.1339C18.1005 52.3683 18.4185 52.5 18.75 52.5H40V57.5H18.75C18.4185 57.5 18.1005 57.6317 17.8661 57.8661C17.6317 58.1005 17.5 58.4185 17.5 58.75C17.5 59.0815 17.6317 59.3995 17.8661 59.6339C18.1005 59.8683 18.4185 60 18.75 60H40V65H18.75C18.4185 65 18.1005 65.1317 17.8661 65.3661C17.6317 65.6005 17.5 65.9185 17.5 66.25C17.5 66.5815 17.6317 66.8995 17.8661 67.1339C18.1005 67.3683 18.4185 67.5 18.75 67.5H40V72.5H12.5V7.5ZM46.25 72.5H42.5V30H67.5V72.5H46.25Z" fill="#010101"/>
</g>
</svg>
