<svg width="80" height="80" viewBox="0 0 80 80" fill="none" xmlns="http://www.w3.org/2000/svg">
<g id="CalendarBlank">
<path id="Vector" d="M65 10.625H56.875V7.5C56.875 7.00272 56.6775 6.52581 56.3258 6.17417C55.9742 5.82254 55.4973 5.625 55 5.625C54.5027 5.625 54.0258 5.82254 53.6742 6.17417C53.3225 6.52581 53.125 7.00272 53.125 7.5V10.625H26.875V7.5C26.875 7.00272 26.6775 6.52581 26.3258 6.17417C25.9742 5.82254 25.4973 5.625 25 5.625C24.5027 5.625 24.0258 5.82254 23.6742 6.17417C23.3225 6.52581 23.125 7.00272 23.125 7.5V10.625H15C13.8397 10.625 12.7269 11.0859 11.9064 11.9064C11.0859 12.7269 10.625 13.8397 10.625 15V65C10.625 66.1603 11.0859 67.2731 11.9064 68.0936C12.7269 68.9141 13.8397 69.375 15 69.375H65C66.1603 69.375 67.2731 68.9141 68.0936 68.0936C68.9141 67.2731 69.375 66.1603 69.375 65V15C69.375 13.8397 68.9141 12.7269 68.0936 11.9064C67.2731 11.0859 66.1603 10.625 65 10.625ZM15 14.375H23.125V17.5C23.125 17.9973 23.3225 18.4742 23.6742 18.8258C24.0258 19.1775 24.5027 19.375 25 19.375C25.4973 19.375 25.9742 19.1775 26.3258 18.8258C26.6775 18.4742 26.875 17.9973 26.875 17.5V14.375H53.125V17.5C53.125 17.9973 53.3225 18.4742 53.6742 18.8258C54.0258 19.1775 54.5027 19.375 55 19.375C55.4973 19.375 55.9742 19.1775 56.3258 18.8258C56.6775 18.4742 56.875 17.9973 56.875 17.5V14.375H65C65.1658 14.375 65.3247 14.4408 65.4419 14.5581C65.5592 14.6753 65.625 14.8342 65.625 15V25.625H14.375V15C14.375 14.8342 14.4408 14.6753 14.5581 14.5581C14.6753 14.4408 14.8342 14.375 15 14.375ZM65 65.625H15C14.8342 65.625 14.6753 65.5592 14.5581 65.4419C14.4408 65.3247 14.375 65.1658 14.375 65V29.375H65.625V65C65.625 65.1658 65.5592 65.3247 65.4419 65.4419C65.3247 65.5592 65.1658 65.625 65 65.625Z" fill="#2E3239"/>
</g>
</svg>
