<svg width="100" height="100" viewBox="0 0 100 100" fill="none" xmlns="http://www.w3.org/2000/svg">
<g id="Dog">
<path id="Vector" d="M39.0627 54.6876C39.0627 55.3057 38.8794 55.9099 38.5361 56.4238C38.1927 56.9377 37.7046 57.3382 37.1336 57.5747C36.5626 57.8112 35.9342 57.8731 35.3281 57.7526C34.7219 57.632 34.165 57.3343 33.728 56.8973C33.291 56.4603 32.9933 55.9034 32.8728 55.2973C32.7522 54.6911 32.8141 54.0627 33.0506 53.4917C33.2871 52.9207 33.6876 52.4326 34.2015 52.0893C34.7155 51.7459 35.3196 51.5626 35.9377 51.5626C36.7665 51.5626 37.5614 51.8918 38.1474 52.4779C38.7335 53.0639 39.0627 53.8588 39.0627 54.6876ZM64.0627 57.8126C64.6808 57.8126 65.285 57.6293 65.7989 57.2859C66.3128 56.9426 66.7133 56.4545 66.9498 55.8835C67.1864 55.3125 67.2482 54.6841 67.1277 54.0779C67.0071 53.4717 66.7095 52.9149 66.2724 52.4779C65.8354 52.0408 65.2786 51.7432 64.6724 51.6226C64.0662 51.5021 63.4378 51.5639 62.8668 51.8005C62.2958 52.037 61.8077 52.4375 61.4644 52.9514C61.121 53.4653 60.9377 54.0695 60.9377 54.6876C60.9377 55.5164 61.2669 56.3113 61.853 56.8973C62.439 57.4834 63.2339 57.8126 64.0627 57.8126ZM89.4299 54.254C88.8172 54.536 88.1513 54.6838 87.4768 54.6876C86.7706 54.6859 86.0741 54.5223 85.441 54.2094C84.8079 53.8966 84.2548 53.4428 83.8244 52.8829L82.8127 51.5978V71.8751C82.8127 75.6047 81.3311 79.1816 78.6939 81.8188C76.0567 84.456 72.4798 85.9376 68.7502 85.9376H31.2502C27.5206 85.9376 23.9438 84.456 21.3065 81.8188C18.6693 79.1816 17.1877 75.6047 17.1877 71.8751V51.5978L16.1994 52.8751C15.768 53.4364 15.2139 53.8915 14.5795 54.2057C13.9451 54.5198 13.2472 54.6847 12.5393 54.6876C11.8647 54.6843 11.1987 54.5365 10.5861 54.254C9.62252 53.831 8.83229 53.0916 8.34637 52.1581C7.86046 51.2246 7.708 50.1532 7.91427 49.1212L14.3283 14.7462C14.4461 14.1183 14.6911 13.521 15.0481 12.9912C15.4051 12.4614 15.8667 12.0101 16.4044 11.6651C16.9422 11.3202 17.5448 11.0888 18.1752 10.9852C18.8057 10.8815 19.4506 10.9079 20.0705 11.0626H20.133L40.8518 17.1876H59.1486L79.883 11.0939H79.9455C80.5654 10.9391 81.2104 10.9128 81.8408 11.0164C82.4712 11.12 83.0738 11.3514 83.6116 11.6964C84.1494 12.0414 84.6109 12.4926 84.9679 13.0224C85.325 13.5523 85.5699 14.1495 85.6877 14.7774L92.1018 49.1524C92.3011 50.1798 92.1451 51.2443 91.6596 52.1713C91.1741 53.0984 90.3878 53.8328 89.4299 54.254ZM37.9885 19.6017L19.2736 14.1017C19.1557 14.0754 19.0351 14.0623 18.9143 14.0626C18.5508 14.0636 18.199 14.1913 17.9195 14.4237C17.64 14.6562 17.4503 14.9788 17.383 15.336L10.969 49.711C10.9025 50.0555 10.9539 50.4123 11.1148 50.724C11.2758 51.0357 11.537 51.2842 11.8563 51.4294C12.1756 51.5746 12.5345 51.6082 12.8752 51.5246C13.216 51.4411 13.5187 51.2453 13.7346 50.9688L37.9885 19.6017ZM79.6877 47.5587L58.594 20.3126H41.4065L20.3127 47.5587V71.8751C20.3127 74.7759 21.465 77.5579 23.5162 79.6091C25.5674 81.6603 28.3494 82.8126 31.2502 82.8126H48.4377V75.6485L42.6447 69.8556C42.3516 69.5624 42.1868 69.1647 42.1868 68.7501C42.1868 68.3355 42.3516 67.9378 42.6447 67.6446C42.9379 67.3514 43.3356 67.1867 43.7502 67.1867C44.1648 67.1867 44.5625 67.3514 44.8557 67.6446L50.0002 72.7892L55.1447 67.6446C55.4379 67.3514 55.8356 67.1867 56.2502 67.1867C56.6648 67.1867 57.0625 67.3514 57.3557 67.6446C57.6489 67.9378 57.8136 68.3355 57.8136 68.7501C57.8136 69.1647 57.6489 69.5624 57.3557 69.8556L51.5627 75.6485V82.8126H68.7502C71.651 82.8126 74.433 81.6603 76.4842 79.6091C78.5354 77.5579 79.6877 74.7759 79.6877 71.8751V47.5587ZM89.0315 49.6993L82.6174 15.3243C82.5786 15.1169 82.4982 14.9195 82.381 14.7441C82.2639 14.5686 82.1124 14.4186 81.9357 14.3033C81.7591 14.188 81.5609 14.1096 81.3531 14.0729C81.1453 14.0362 80.9323 14.042 80.7268 14.0899L62.0119 19.6017L86.2736 50.961C86.491 51.2339 86.7934 51.4261 87.1327 51.5072C87.472 51.5882 87.8286 51.5534 88.1458 51.4083C88.463 51.2632 88.7225 51.0161 88.883 50.7064C89.0435 50.3967 89.0958 50.0422 89.0315 49.6993Z" fill="#083050"/>
</g>
</svg>
