<svg width="125" height="44" viewBox="0 0 125 44" fill="none" xmlns="http://www.w3.org/2000/svg">
<g id="Group 20">
<rect id="Rectangle 37" width="125" height="44" rx="5" fill="black"/>
<g id="Group 18">
<g id="Group 21">
<g id="icon">
<path id="path94" d="M20.0267 21.4617L10.0918 32.0059C10.0927 32.0078 10.0927 32.0106 10.0937 32.0125C10.3988 33.1574 11.4439 34 12.6849 34C13.1814 34 13.647 33.8656 14.0464 33.6305L14.0781 33.6118L25.2606 27.1593L20.0267 21.4617Z" fill="#EA4335"/>
<path id="path98" d="M30.0772 19.6662L30.0679 19.6597L25.2399 16.8612L19.8008 21.7013L25.2595 27.1582L30.0614 24.3878C30.903 23.9324 31.475 23.045 31.475 22.0223C31.475 21.0052 30.9114 20.1225 30.0772 19.6662Z" fill="#FBBC04"/>
<path id="path102" d="M10.0914 11.9932C10.0317 12.2135 10 12.4449 10 12.6838V31.3163C10 31.5552 10.0317 31.7866 10.0924 32.0059L20.3679 21.7313L10.0914 11.9932Z" fill="#4285F4"/>
<path id="path106" d="M20.0999 22L25.2414 16.8594L14.072 10.3836C13.6661 10.1401 13.1921 10.0001 12.6854 10.0001C11.4443 10.0001 10.3974 10.8446 10.0922 11.9904C10.0922 11.9914 10.0913 11.9923 10.0913 11.9932L20.0999 22Z" fill="#34A853"/>
</g>
<g id="text">
<g id="Get it on">
<path id="path42" d="M46.0988 12.9794C46.0988 13.7185 45.88 14.3068 45.4417 14.7461C44.9433 15.2682 44.2951 15.5293 43.4977 15.5293C42.733 15.5293 42.0839 15.2647 41.5503 14.7346C41.0149 14.2054 40.7485 13.5483 40.7485 12.7651C40.7485 11.981 41.0149 11.3248 41.5503 10.7947C42.0839 10.2655 42.733 10 43.4977 10C43.8761 10 44.2395 10.0741 44.5835 10.2223C44.9283 10.3705 45.2044 10.5672 45.4117 10.8132L44.946 11.2789C44.5958 10.8609 44.1134 10.6509 43.4977 10.6509C42.9403 10.6509 42.4587 10.8467 42.0521 11.2384C41.6455 11.6308 41.4427 12.1389 41.4427 12.7651C41.4427 13.3904 41.6455 13.8994 42.0521 14.291C42.4587 14.6835 42.9403 14.8784 43.4977 14.8784C44.0887 14.8784 44.5808 14.6817 44.976 14.2874C45.2318 14.0308 45.379 13.6744 45.4187 13.2158H43.4977V12.5799H46.0617C46.0864 12.7184 46.0988 12.8515 46.0988 12.9794Z" fill="white"/>
<path id="path46" d="M46.0988 12.9794C46.0988 13.7185 45.88 14.3068 45.4417 14.7461C44.9433 15.2682 44.2951 15.5293 43.4977 15.5293C42.733 15.5293 42.0839 15.2647 41.5503 14.7346C41.0149 14.2054 40.7485 13.5483 40.7485 12.7651C40.7485 11.981 41.0149 11.3248 41.5503 10.7947C42.0839 10.2655 42.733 10 43.4977 10C43.8761 10 44.2395 10.0741 44.5835 10.2223C44.9283 10.3705 45.2044 10.5672 45.4117 10.8132L44.946 11.2789C44.5958 10.8609 44.1134 10.6509 43.4977 10.6509C42.9403 10.6509 42.4587 10.8467 42.0521 11.2384C41.6455 11.6308 41.4427 12.1389 41.4427 12.7651C41.4427 13.3904 41.6455 13.8994 42.0521 14.291C42.4587 14.6835 42.9403 14.8784 43.4977 14.8784C44.0887 14.8784 44.5808 14.6817 44.976 14.2874C45.2318 14.0308 45.379 13.6744 45.4187 13.2158H43.4977V12.5799H46.0617C46.0864 12.7184 46.0988 12.8515 46.0988 12.9794Z" fill="white"/>
<path id="path50" d="M50.1644 10.7692H47.7547V12.4467H49.928V13.0826H47.7547V14.7602H50.1644V15.4111H47.0747V10.1191H50.1644V10.7692Z" fill="white"/>
<path id="path54" d="M50.1644 10.7692H47.7547V12.4467H49.928V13.0826H47.7547V14.7602H50.1644V15.4111H47.0747V10.1191H50.1644V10.7692Z" fill="white"/>
<path id="path58" d="M53.0318 15.4111H52.3518V10.7692H50.8735V10.1191H54.51V10.7692H53.0318V15.4111Z" fill="white"/>
<path id="path62" d="M53.0318 15.4111H52.3518V10.7692H50.8735V10.1191H54.51V10.7692H53.0318V15.4111Z" fill="white"/>
<path id="path64" d="M57.1411 10.1191H57.8211V15.4111H57.1411V10.1191Z" fill="white"/>
<path id="path68" d="M60.837 15.4111H60.1569V10.7692H58.6787V10.1191H62.3152V10.7692H60.837V15.4111Z" fill="white"/>
<path id="path72" d="M60.837 15.4111H60.1569V10.7692H58.6787V10.1191H62.3152V10.7692H60.837V15.4111Z" fill="white"/>
<path id="path76" d="M65.8211 14.2839C66.2127 14.6808 66.6916 14.8784 67.2588 14.8784C67.8259 14.8784 68.3048 14.6808 68.6964 14.2839C69.088 13.887 69.2847 13.3807 69.2847 12.7651C69.2847 12.1495 69.088 11.6423 68.6964 11.2463C68.3048 10.8494 67.8259 10.6509 67.2588 10.6509C66.6916 10.6509 66.2127 10.8494 65.8211 11.2463C65.4304 11.6423 65.2337 12.1495 65.2337 12.7651C65.2337 13.3807 65.4304 13.887 65.8211 14.2839ZM69.1992 14.7267C68.6788 15.2621 68.0323 15.5293 67.2588 15.5293C66.4852 15.5293 65.8387 15.2621 65.3192 14.7267C64.7989 14.1922 64.5396 13.5386 64.5396 12.7651C64.5396 11.9916 64.7989 11.3371 65.3192 10.8026C65.8387 10.2682 66.4852 10 67.2588 10C68.0279 10 68.6726 10.269 69.1956 10.8062C69.7178 11.3433 69.9789 11.996 69.9789 12.7651C69.9789 13.5386 69.7187 14.1922 69.1992 14.7267Z" fill="white"/>
<path id="path80" d="M65.8211 14.2839C66.2127 14.6808 66.6916 14.8784 67.2588 14.8784C67.8259 14.8784 68.3048 14.6808 68.6964 14.2839C69.088 13.887 69.2847 13.3807 69.2847 12.7651C69.2847 12.1495 69.088 11.6423 68.6964 11.2463C68.3048 10.8494 67.8259 10.6509 67.2588 10.6509C66.6916 10.6509 66.2127 10.8494 65.8211 11.2463C65.4304 11.6423 65.2337 12.1495 65.2337 12.7651C65.2337 13.3807 65.4304 13.887 65.8211 14.2839ZM69.1992 14.7267C68.6788 15.2621 68.0323 15.5293 67.2588 15.5293C66.4852 15.5293 65.8387 15.2621 65.3192 14.7267C64.7989 14.1922 64.5396 13.5386 64.5396 12.7651C64.5396 11.9916 64.7989 11.3371 65.3192 10.8026C65.8387 10.2682 66.4852 10 67.2588 10C68.0279 10 68.6726 10.269 69.1956 10.8062C69.7178 11.3433 69.9789 11.996 69.9789 12.7651C69.9789 13.5386 69.7187 14.1922 69.1992 14.7267Z" fill="white"/>
<path id="path84" d="M70.9331 15.4111V10.1191H71.7604L74.3323 14.2354H74.3623L74.3323 13.2158V10.1191H75.0132V15.4111H74.3032L71.6122 11.0946H71.5831L71.6122 12.1151V15.4111H70.9331Z" fill="white"/>
<path id="path88" d="M70.9331 15.4111V10.1191H71.7604L74.3323 14.2354H74.3623L74.3323 13.2158V10.1191H75.0132V15.4111H74.3032L71.6122 11.0946H71.5831L71.6122 12.1151V15.4111H70.9331Z" fill="white"/>
</g>
<path id="Google Play" d="M98.5938 30.405H100.24V19.379H98.5938V30.405ZM113.418 23.3507L111.531 28.1312H111.475L109.516 23.3507H107.744L110.68 30.0319L109.007 33.7486H110.722L115.248 23.3507H113.418ZM104.084 29.1525C103.544 29.1525 102.793 28.8835 102.793 28.2158C102.793 27.3656 103.729 27.0392 104.538 27.0392C105.261 27.0392 105.602 27.1954 106.041 27.4079C105.913 28.4293 105.034 29.1525 104.084 29.1525ZM104.283 23.1099C103.091 23.1099 101.856 23.6347 101.346 24.7981L102.807 25.4075C103.119 24.7981 103.701 24.5987 104.311 24.5987C105.162 24.5987 106.027 25.1094 106.041 26.0179V26.1308C105.743 25.9605 105.106 25.7057 104.325 25.7057C102.751 25.7057 101.147 26.5709 101.147 28.1876C101.147 29.6632 102.438 30.614 103.885 30.614C104.992 30.614 105.602 30.1174 105.985 29.5353H106.041V30.3864H107.63V26.159C107.63 24.2018 106.169 23.1099 104.283 23.1099ZM94.1114 24.6931H91.7706V20.9137H94.1114C95.3418 20.9137 96.0404 21.9324 96.0404 22.803C96.0404 23.6576 95.3418 24.6931 94.1114 24.6931ZM94.0691 19.379H90.1256V30.405H91.7706V26.2278H94.0691C95.8931 26.2278 97.6862 24.9066 97.6862 22.803C97.6862 20.6994 95.8931 19.379 94.0691 19.379ZM72.565 29.1543C71.4281 29.1543 70.4764 28.2026 70.4764 26.8955C70.4764 25.5742 71.4281 24.6076 72.565 24.6076C73.6878 24.6076 74.568 25.5742 74.568 26.8955C74.568 28.2026 73.6878 29.1543 72.565 29.1543ZM74.4551 23.9681H74.3978C74.0282 23.528 73.3182 23.1302 72.423 23.1302C70.547 23.1302 68.8279 24.7778 68.8279 26.8955C68.8279 28.9982 70.547 30.6325 72.423 30.6325C73.3182 30.6325 74.0282 30.2347 74.3978 29.7796H74.4551V30.3203C74.4551 31.7553 73.6878 32.5226 72.4512 32.5226C71.4422 32.5226 70.8169 31.7976 70.5611 31.1864L69.1261 31.7835C69.538 32.7784 70.6325 34 72.4512 34C74.3837 34 76.018 32.8631 76.018 30.0927V23.3569H74.4551V23.9681ZM77.1549 30.405H78.8034V19.3782H77.1549V30.405ZM81.2324 26.7676C81.1901 25.3185 82.3552 24.5793 83.1931 24.5793C83.8476 24.5793 84.4015 24.9057 84.5858 25.3749L81.2324 26.7676ZM86.348 25.5169C86.0358 24.679 85.0832 23.1302 83.1367 23.1302C81.2042 23.1302 79.599 24.6499 79.599 26.8814C79.599 28.9841 81.1901 30.6325 83.321 30.6325C85.0409 30.6325 86.0358 29.5812 86.4477 28.9699L85.1688 28.117C84.7428 28.7424 84.1598 29.1543 83.321 29.1543C82.4831 29.1543 81.886 28.7706 81.5023 28.0183L86.5183 25.9429L86.348 25.5169ZM46.3863 24.2812V25.8723H50.1939C50.0801 26.7676 49.782 27.4211 49.3278 27.8754C48.773 28.4302 47.906 29.0414 46.3863 29.0414C44.041 29.0414 42.2082 27.1513 42.2082 24.8069C42.2082 22.4616 44.041 20.5724 46.3863 20.5724C47.6511 20.5724 48.5745 21.0698 49.2563 21.7093L50.3791 20.5865C49.4265 19.6772 48.1626 18.9804 46.3863 18.9804C43.1749 18.9804 40.4751 21.5955 40.4751 24.8069C40.4751 28.0183 43.1749 30.6325 46.3863 30.6325C48.1194 30.6325 49.4265 30.0636 50.4497 28.9982C51.5019 27.9468 51.8282 26.4695 51.8282 25.2752C51.8282 24.9057 51.8 24.5652 51.7427 24.2812H46.3863ZM56.158 29.1543C55.0211 29.1543 54.0403 28.2167 54.0403 26.8814C54.0403 25.531 55.0211 24.6076 56.158 24.6076C57.294 24.6076 58.2748 25.531 58.2748 26.8814C58.2748 28.2167 57.294 29.1543 56.158 29.1543ZM56.158 23.1302C54.0826 23.1302 52.3918 24.7072 52.3918 26.8814C52.3918 29.0414 54.0826 30.6325 56.158 30.6325C58.2324 30.6325 59.9233 29.0414 59.9233 26.8814C59.9233 24.7072 58.2324 23.1302 56.158 23.1302ZM64.3721 29.1543C63.2352 29.1543 62.2544 28.2167 62.2544 26.8814C62.2544 25.531 63.2352 24.6076 64.3721 24.6076C65.509 24.6076 66.4889 25.531 66.4889 26.8814C66.4889 28.2167 65.509 29.1543 64.3721 29.1543ZM64.3721 23.1302C62.2976 23.1302 60.6068 24.7072 60.6068 26.8814C60.6068 29.0414 62.2976 30.6325 64.3721 30.6325C66.4465 30.6325 68.1373 29.0414 68.1373 26.8814C68.1373 24.7072 66.4465 23.1302 64.3721 23.1302Z" fill="white"/>
</g>
</g>
</g>
</g>
</svg>
