<svg width="385" height="334" viewBox="0 0 385 334" fill="none" xmlns="http://www.w3.org/2000/svg">
<rect width="385" height="334" fill="white"/>
<path d="M36.472 39.368H31.096V36.2H45.736V39.368H40.36V53H36.472V39.368ZM58.8994 46.592C58.8994 46.64 58.8754 46.976 58.8274 47.6H49.0594C49.2354 48.4 49.6514 49.032 50.3074 49.496C50.9634 49.96 51.7794 50.192 52.7554 50.192C53.4274 50.192 54.0194 50.096 54.5314 49.904C55.0594 49.696 55.5474 49.376 55.9954 48.944L57.9874 51.104C56.7714 52.496 54.9954 53.192 52.6594 53.192C51.2034 53.192 49.9154 52.912 48.7954 52.352C47.6754 51.776 46.8114 50.984 46.2034 49.976C45.5954 48.968 45.2914 47.824 45.2914 46.544C45.2914 45.28 45.5874 44.144 46.1794 43.136C46.7874 42.112 47.6114 41.32 48.6514 40.76C49.7074 40.184 50.8834 39.896 52.1794 39.896C53.4434 39.896 54.5874 40.168 55.6114 40.712C56.6354 41.256 57.4354 42.04 58.0114 43.064C58.6034 44.072 58.8994 45.248 58.8994 46.592ZM52.2034 42.728C51.3554 42.728 50.6434 42.968 50.0674 43.448C49.4914 43.928 49.1394 44.584 49.0114 45.416H55.3714C55.2434 44.6 54.8914 43.952 54.3154 43.472C53.7394 42.976 53.0354 42.728 52.2034 42.728ZM77.9281 39.896C79.5441 39.896 80.8241 40.376 81.7681 41.336C82.7281 42.28 83.2081 43.704 83.2081 45.608V53H79.4641V46.184C79.4641 45.16 79.2481 44.4 78.8161 43.904C78.4001 43.392 77.8001 43.136 77.0161 43.136C76.1361 43.136 75.4401 43.424 74.9281 44C74.4161 44.56 74.1601 45.4 74.1601 46.52V53H70.4161V46.184C70.4161 44.152 69.6001 43.136 67.9681 43.136C67.1041 43.136 66.4161 43.424 65.9041 44C65.3921 44.56 65.1361 45.4 65.1361 46.52V53H61.3921V40.088H64.9681V41.576C65.4481 41.032 66.0321 40.616 66.7201 40.328C67.4241 40.04 68.1921 39.896 69.0241 39.896C69.9361 39.896 70.7601 40.08 71.4961 40.448C72.2321 40.8 72.8241 41.32 73.2721 42.008C73.8001 41.336 74.4641 40.816 75.2641 40.448C76.0801 40.08 76.9681 39.896 77.9281 39.896ZM94.1959 39.896C95.3959 39.896 96.4839 40.176 97.4599 40.736C98.4519 41.28 99.2279 42.056 99.7879 43.064C100.348 44.056 100.628 45.216 100.628 46.544C100.628 47.872 100.348 49.04 99.7879 50.048C99.2279 51.04 98.4519 51.816 97.4599 52.376C96.4839 52.92 95.3959 53.192 94.1959 53.192C92.5479 53.192 91.2519 52.672 90.3079 51.632V57.656H86.5639V40.088H90.1399V41.576C91.0679 40.456 92.4199 39.896 94.1959 39.896ZM93.5479 50.12C94.5079 50.12 95.2919 49.8 95.8999 49.16C96.5239 48.504 96.8359 47.632 96.8359 46.544C96.8359 45.456 96.5239 44.592 95.8999 43.952C95.2919 43.296 94.5079 42.968 93.5479 42.968C92.5879 42.968 91.7959 43.296 91.1719 43.952C90.5639 44.592 90.2599 45.456 90.2599 46.544C90.2599 47.632 90.5639 48.504 91.1719 49.16C91.7959 49.8 92.5879 50.12 93.5479 50.12ZM109.278 53.192C107.918 53.192 106.694 52.912 105.606 52.352C104.534 51.776 103.694 50.984 103.086 49.976C102.478 48.968 102.174 47.824 102.174 46.544C102.174 45.264 102.478 44.12 103.086 43.112C103.694 42.104 104.534 41.32 105.606 40.76C106.694 40.184 107.918 39.896 109.278 39.896C110.638 39.896 111.854 40.184 112.926 40.76C113.998 41.32 114.838 42.104 115.446 43.112C116.054 44.12 116.358 45.264 116.358 46.544C116.358 47.824 116.054 48.968 115.446 49.976C114.838 50.984 113.998 51.776 112.926 52.352C111.854 52.912 110.638 53.192 109.278 53.192ZM109.278 50.12C110.238 50.12 111.022 49.8 111.63 49.16C112.254 48.504 112.566 47.632 112.566 46.544C112.566 45.456 112.254 44.592 111.63 43.952C111.022 43.296 110.238 42.968 109.278 42.968C108.318 42.968 107.526 43.296 106.902 43.952C106.278 44.592 105.966 45.456 105.966 46.544C105.966 47.632 106.278 48.504 106.902 49.16C107.526 49.8 108.318 50.12 109.278 50.12ZM138.81 35.192V53H135.234V51.512C134.306 52.632 132.962 53.192 131.202 53.192C129.986 53.192 128.882 52.92 127.89 52.376C126.914 51.832 126.146 51.056 125.586 50.048C125.026 49.04 124.746 47.872 124.746 46.544C124.746 45.216 125.026 44.048 125.586 43.04C126.146 42.032 126.914 41.256 127.89 40.712C128.882 40.168 129.986 39.896 131.202 39.896C132.85 39.896 134.138 40.416 135.066 41.456V35.192H138.81ZM131.85 50.12C132.794 50.12 133.578 49.8 134.202 49.16C134.826 48.504 135.138 47.632 135.138 46.544C135.138 45.456 134.826 44.592 134.202 43.952C133.578 43.296 132.794 42.968 131.85 42.968C130.89 42.968 130.098 43.296 129.474 43.952C128.85 44.592 128.538 45.456 128.538 46.544C128.538 47.632 128.85 48.504 129.474 49.16C130.098 49.8 130.89 50.12 131.85 50.12ZM154.923 46.592C154.923 46.64 154.899 46.976 154.851 47.6H145.083C145.259 48.4 145.675 49.032 146.331 49.496C146.987 49.96 147.803 50.192 148.779 50.192C149.451 50.192 150.043 50.096 150.555 49.904C151.083 49.696 151.571 49.376 152.019 48.944L154.011 51.104C152.795 52.496 151.019 53.192 148.683 53.192C147.227 53.192 145.939 52.912 144.819 52.352C143.699 51.776 142.835 50.984 142.227 49.976C141.619 48.968 141.315 47.824 141.315 46.544C141.315 45.28 141.611 44.144 142.203 43.136C142.811 42.112 143.635 41.32 144.675 40.76C145.731 40.184 146.907 39.896 148.203 39.896C149.467 39.896 150.611 40.168 151.635 40.712C152.659 41.256 153.459 42.04 154.035 43.064C154.627 44.072 154.923 45.248 154.923 46.592ZM148.227 42.728C147.379 42.728 146.667 42.968 146.091 43.448C145.515 43.928 145.163 44.584 145.035 45.416H151.395C151.267 44.6 150.915 43.952 150.339 43.472C149.763 42.976 149.059 42.728 148.227 42.728ZM172.612 53.288C170.868 53.288 169.292 52.912 167.884 52.16C166.492 51.408 165.396 50.376 164.596 49.064C163.812 47.736 163.42 46.248 163.42 44.6C163.42 42.952 163.812 41.472 164.596 40.16C165.396 38.832 166.492 37.792 167.884 37.04C169.292 36.288 170.868 35.912 172.612 35.912C174.356 35.912 175.924 36.288 177.316 37.04C178.708 37.792 179.804 38.832 180.604 40.16C181.404 41.472 181.804 42.952 181.804 44.6C181.804 46.248 181.404 47.736 180.604 49.064C179.804 50.376 178.708 51.408 177.316 52.16C175.924 52.912 174.356 53.288 172.612 53.288ZM172.612 49.976C173.604 49.976 174.5 49.752 175.3 49.304C176.1 48.84 176.724 48.2 177.172 47.384C177.636 46.568 177.868 45.64 177.868 44.6C177.868 43.56 177.636 42.632 177.172 41.816C176.724 41 176.1 40.368 175.3 39.92C174.5 39.456 173.604 39.224 172.612 39.224C171.62 39.224 170.724 39.456 169.924 39.92C169.124 40.368 168.492 41 168.028 41.816C167.58 42.632 167.356 43.56 167.356 44.6C167.356 45.64 167.58 46.568 168.028 47.384C168.492 48.2 169.124 48.84 169.924 49.304C170.724 49.752 171.62 49.976 172.612 49.976ZM192.094 39.896C193.294 39.896 194.382 40.176 195.358 40.736C196.35 41.28 197.126 42.056 197.686 43.064C198.246 44.056 198.526 45.216 198.526 46.544C198.526 47.872 198.246 49.04 197.686 50.048C197.126 51.04 196.35 51.816 195.358 52.376C194.382 52.92 193.294 53.192 192.094 53.192C190.318 53.192 188.966 52.632 188.038 51.512V53H184.462V35.192H188.206V41.456C189.15 40.416 190.446 39.896 192.094 39.896ZM191.446 50.12C192.406 50.12 193.19 49.8 193.798 49.16C194.422 48.504 194.734 47.632 194.734 46.544C194.734 45.456 194.422 44.592 193.798 43.952C193.19 43.296 192.406 42.968 191.446 42.968C190.486 42.968 189.694 43.296 189.07 43.952C188.462 44.592 188.158 45.456 188.158 46.544C188.158 47.632 188.462 48.504 189.07 49.16C189.694 49.8 190.486 50.12 191.446 50.12ZM204.609 41.792C205.057 41.168 205.657 40.696 206.409 40.376C207.177 40.056 208.057 39.896 209.049 39.896V43.352C208.633 43.32 208.353 43.304 208.209 43.304C207.137 43.304 206.297 43.608 205.689 44.216C205.081 44.808 204.777 45.704 204.777 46.904V53H201.033V40.088H204.609V41.792ZM216.413 39.896C218.413 39.896 219.949 40.376 221.021 41.336C222.093 42.28 222.629 43.712 222.629 45.632V53H219.125V51.392C218.421 52.592 217.109 53.192 215.189 53.192C214.197 53.192 213.333 53.024 212.597 52.688C211.877 52.352 211.325 51.888 210.941 51.296C210.557 50.704 210.365 50.032 210.365 49.28C210.365 48.08 210.813 47.136 211.709 46.448C212.621 45.76 214.021 45.416 215.909 45.416H218.885C218.885 44.6 218.637 43.976 218.141 43.544C217.645 43.096 216.901 42.872 215.909 42.872C215.221 42.872 214.541 42.984 213.869 43.208C213.213 43.416 212.653 43.704 212.189 44.072L210.845 41.456C211.549 40.96 212.389 40.576 213.365 40.304C214.357 40.032 215.373 39.896 216.413 39.896ZM216.125 50.672C216.765 50.672 217.333 50.528 217.829 50.24C218.325 49.936 218.677 49.496 218.885 48.92V47.6H216.317C214.781 47.6 214.013 48.104 214.013 49.112C214.013 49.592 214.197 49.976 214.565 50.264C214.949 50.536 215.469 50.672 216.125 50.672Z" fill="#083050"/>
<path d="M30.5 79V259H354.5" stroke="#A7A9AC" stroke-width="2"/>
<rect x="61" y="154.789" width="100" height="104.211" fill="#7BB3D2"/>
<rect x="191" y="92.0264" width="100" height="166.974" fill="#F98989"/>
<ellipse cx="38.498" cy="290.5" rx="7.5" ry="7.5" fill="#7BB3D2"/>
<path d="M62.046 285.8C63.4967 285.8 64.638 286.147 65.47 286.84C66.302 287.533 66.718 288.488 66.718 289.704C66.718 290.92 66.302 291.875 65.47 292.568C64.638 293.261 63.4967 293.608 62.046 293.608H59.278V297H57.678V285.8H62.046ZM61.998 292.216C63.0114 292.216 63.7847 292.003 64.318 291.576C64.8514 291.139 65.118 290.515 65.118 289.704C65.118 288.893 64.8514 288.275 64.318 287.848C63.7847 287.411 63.0114 287.192 61.998 287.192H59.278V292.216H61.998ZM70.176 289.944C70.4427 289.453 70.8374 289.08 71.36 288.824C71.8827 288.568 72.5174 288.44 73.264 288.44V289.928C73.1787 289.917 73.0614 289.912 72.912 289.912C72.08 289.912 71.424 290.163 70.944 290.664C70.4747 291.155 70.24 291.859 70.24 292.776V297H68.704V288.52H70.176V289.944ZM78.711 297.096C77.8684 297.096 77.111 296.909 76.439 296.536C75.767 296.163 75.239 295.651 74.855 295C74.4817 294.339 74.295 293.592 74.295 292.76C74.295 291.928 74.4817 291.187 74.855 290.536C75.239 289.875 75.767 289.363 76.439 289C77.111 288.627 77.8684 288.44 78.711 288.44C79.5537 288.44 80.3057 288.627 80.967 289C81.639 289.363 82.1617 289.875 82.535 290.536C82.919 291.187 83.111 291.928 83.111 292.76C83.111 293.592 82.919 294.339 82.535 295C82.1617 295.651 81.639 296.163 80.967 296.536C80.3057 296.909 79.5537 297.096 78.711 297.096ZM78.711 295.752C79.255 295.752 79.7404 295.629 80.167 295.384C80.6044 295.128 80.9457 294.776 81.191 294.328C81.4364 293.869 81.559 293.347 81.559 292.76C81.559 292.173 81.4364 291.656 81.191 291.208C80.9457 290.749 80.6044 290.397 80.167 290.152C79.7404 289.907 79.255 289.784 78.711 289.784C78.167 289.784 77.6764 289.907 77.239 290.152C76.8124 290.397 76.471 290.749 76.215 291.208C75.9697 291.656 75.847 292.173 75.847 292.76C75.847 293.347 75.9697 293.869 76.215 294.328C76.471 294.776 76.8124 295.128 77.239 295.384C77.6764 295.629 78.167 295.752 78.711 295.752ZM93.2353 285.128V297H91.7633V295.656C91.422 296.125 90.99 296.483 90.4673 296.728C89.9446 296.973 89.3686 297.096 88.7393 297.096C87.918 297.096 87.182 296.915 86.5313 296.552C85.8806 296.189 85.3686 295.683 84.9953 295.032C84.6326 294.371 84.4513 293.613 84.4513 292.76C84.4513 291.907 84.6326 291.155 84.9953 290.504C85.3686 289.853 85.8806 289.347 86.5313 288.984C87.182 288.621 87.918 288.44 88.7393 288.44C89.3473 288.44 89.9073 288.557 90.4193 288.792C90.9313 289.016 91.358 289.352 91.6993 289.8V285.128H93.2353ZM88.8673 295.752C89.4006 295.752 89.886 295.629 90.3233 295.384C90.7606 295.128 91.102 294.776 91.3473 294.328C91.5926 293.869 91.7153 293.347 91.7153 292.76C91.7153 292.173 91.5926 291.656 91.3473 291.208C91.102 290.749 90.7606 290.397 90.3233 290.152C89.886 289.907 89.4006 289.784 88.8673 289.784C88.3233 289.784 87.8326 289.907 87.3953 290.152C86.9686 290.397 86.6273 290.749 86.3713 291.208C86.126 291.656 86.0033 292.173 86.0033 292.76C86.0033 293.347 86.126 293.869 86.3713 294.328C86.6273 294.776 86.9686 295.128 87.3953 295.384C87.8326 295.629 88.3233 295.752 88.8673 295.752ZM104.046 288.52V297H102.59V295.72C102.28 296.157 101.87 296.499 101.358 296.744C100.856 296.979 100.307 297.096 99.7095 297.096C98.5789 297.096 97.6882 296.787 97.0375 296.168C96.3869 295.539 96.0615 294.616 96.0615 293.4V288.52H97.5975V293.224C97.5975 294.045 97.7949 294.669 98.1895 295.096C98.5842 295.512 99.1495 295.72 99.8855 295.72C100.696 295.72 101.336 295.475 101.806 294.984C102.275 294.493 102.51 293.8 102.51 292.904V288.52H104.046ZM113.258 295.736V297H106.154V296.008L111.162 289.784H106.25V288.52H113.13V289.528L108.122 295.736H113.258ZM115.313 288.52H116.849V297H115.313V288.52ZM116.081 286.888C115.783 286.888 115.532 286.792 115.329 286.6C115.137 286.408 115.041 286.173 115.041 285.896C115.041 285.619 115.137 285.384 115.329 285.192C115.532 284.989 115.783 284.888 116.081 284.888C116.38 284.888 116.625 284.984 116.817 285.176C117.02 285.357 117.121 285.587 117.121 285.864C117.121 286.152 117.02 286.397 116.817 286.6C116.625 286.792 116.38 286.888 116.081 286.888ZM127.782 285.128V297H126.31V295.656C125.969 296.125 125.537 296.483 125.014 296.728C124.492 296.973 123.916 297.096 123.286 297.096C122.465 297.096 121.729 296.915 121.078 296.552C120.428 296.189 119.916 295.683 119.542 295.032C119.18 294.371 118.998 293.613 118.998 292.76C118.998 291.907 119.18 291.155 119.542 290.504C119.916 289.853 120.428 289.347 121.078 288.984C121.729 288.621 122.465 288.44 123.286 288.44C123.894 288.44 124.454 288.557 124.966 288.792C125.478 289.016 125.905 289.352 126.246 289.8V285.128H127.782ZM123.414 295.752C123.948 295.752 124.433 295.629 124.87 295.384C125.308 295.128 125.649 294.776 125.894 294.328C126.14 293.869 126.262 293.347 126.262 292.76C126.262 292.173 126.14 291.656 125.894 291.208C125.649 290.749 125.308 290.397 124.87 290.152C124.433 289.907 123.948 289.784 123.414 289.784C122.87 289.784 122.38 289.907 121.942 290.152C121.516 290.397 121.174 290.749 120.918 291.208C120.673 291.656 120.55 292.173 120.55 292.76C120.55 293.347 120.673 293.869 120.918 294.328C121.174 294.776 121.516 295.128 121.942 295.384C122.38 295.629 122.87 295.752 123.414 295.752ZM134.32 297.096C133.478 297.096 132.72 296.909 132.048 296.536C131.376 296.163 130.848 295.651 130.464 295C130.091 294.339 129.904 293.592 129.904 292.76C129.904 291.928 130.091 291.187 130.464 290.536C130.848 289.875 131.376 289.363 132.048 289C132.72 288.627 133.478 288.44 134.32 288.44C135.163 288.44 135.915 288.627 136.576 289C137.248 289.363 137.771 289.875 138.144 290.536C138.528 291.187 138.72 291.928 138.72 292.76C138.72 293.592 138.528 294.339 138.144 295C137.771 295.651 137.248 296.163 136.576 296.536C135.915 296.909 135.163 297.096 134.32 297.096ZM134.32 295.752C134.864 295.752 135.35 295.629 135.776 295.384C136.214 295.128 136.555 294.776 136.8 294.328C137.046 293.869 137.168 293.347 137.168 292.76C137.168 292.173 137.046 291.656 136.8 291.208C136.555 290.749 136.214 290.397 135.776 290.152C135.35 289.907 134.864 289.784 134.32 289.784C133.776 289.784 133.286 289.907 132.848 290.152C132.422 290.397 132.08 290.749 131.824 291.208C131.579 291.656 131.456 292.173 131.456 292.76C131.456 293.347 131.579 293.869 131.824 294.328C132.08 294.776 132.422 295.128 132.848 295.384C133.286 295.629 133.776 295.752 134.32 295.752Z" fill="#2E3239"/>
<ellipse cx="177.5" cy="291.5" rx="7.5" ry="7.5" fill="#F98989"/>
<path d="M201.048 286.8C202.499 286.8 203.64 287.147 204.472 287.84C205.304 288.533 205.72 289.488 205.72 290.704C205.72 291.92 205.304 292.875 204.472 293.568C203.64 294.261 202.499 294.608 201.048 294.608H198.28V298H196.68V286.8H201.048ZM201 293.216C202.013 293.216 202.787 293.003 203.32 292.576C203.853 292.139 204.12 291.515 204.12 290.704C204.12 289.893 203.853 289.275 203.32 288.848C202.787 288.411 202.013 288.192 201 288.192H198.28V293.216H201ZM208.003 286.128H209.539V298H208.003V286.128ZM215.56 289.44C216.733 289.44 217.629 289.728 218.248 290.304C218.877 290.88 219.192 291.739 219.192 292.88V298H217.736V296.88C217.48 297.275 217.112 297.579 216.632 297.792C216.162 297.995 215.602 298.096 214.952 298.096C214.002 298.096 213.24 297.867 212.664 297.408C212.098 296.949 211.816 296.347 211.816 295.6C211.816 294.853 212.088 294.256 212.632 293.808C213.176 293.349 214.04 293.12 215.224 293.12H217.656V292.816C217.656 292.155 217.464 291.648 217.08 291.296C216.696 290.944 216.13 290.768 215.384 290.768C214.882 290.768 214.392 290.853 213.912 291.024C213.432 291.184 213.026 291.403 212.696 291.68L212.056 290.528C212.493 290.176 213.016 289.909 213.624 289.728C214.232 289.536 214.877 289.44 215.56 289.44ZM215.208 296.912C215.794 296.912 216.301 296.784 216.728 296.528C217.154 296.261 217.464 295.888 217.656 295.408V294.224H215.288C213.986 294.224 213.336 294.661 213.336 295.536C213.336 295.963 213.501 296.299 213.832 296.544C214.162 296.789 214.621 296.912 215.208 296.912ZM226.562 289.44C227.639 289.44 228.493 289.755 229.122 290.384C229.762 291.003 230.082 291.915 230.082 293.12V298H228.546V293.296C228.546 292.475 228.349 291.856 227.954 291.44C227.559 291.024 226.994 290.816 226.258 290.816C225.426 290.816 224.77 291.061 224.29 291.552C223.81 292.032 223.57 292.725 223.57 293.632V298H222.034V289.52H223.506V290.8C223.815 290.363 224.231 290.027 224.754 289.792C225.287 289.557 225.89 289.44 226.562 289.44ZM240.636 293.808C240.636 293.925 240.625 294.08 240.604 294.272H233.724C233.82 295.019 234.145 295.621 234.7 296.08C235.265 296.528 235.964 296.752 236.796 296.752C237.809 296.752 238.625 296.411 239.244 295.728L240.092 296.72C239.708 297.168 239.228 297.509 238.652 297.744C238.086 297.979 237.452 298.096 236.748 298.096C235.852 298.096 235.057 297.915 234.364 297.552C233.67 297.179 233.132 296.661 232.748 296C232.374 295.339 232.188 294.592 232.188 293.76C232.188 292.939 232.369 292.197 232.732 291.536C233.105 290.875 233.612 290.363 234.252 290C234.902 289.627 235.633 289.44 236.444 289.44C237.254 289.44 237.974 289.627 238.604 290C239.244 290.363 239.74 290.875 240.092 291.536C240.454 292.197 240.636 292.955 240.636 293.808ZM236.444 290.736C235.708 290.736 235.089 290.96 234.588 291.408C234.097 291.856 233.809 292.443 233.724 293.168H239.164C239.078 292.453 238.785 291.872 238.284 291.424C237.793 290.965 237.18 290.736 236.444 290.736ZM241.681 301.2C241.307 301.2 240.96 301.157 240.64 301.072C240.32 300.987 240.054 300.859 239.84 300.688L240.336 299.504C240.656 299.771 241.072 299.904 241.585 299.904C241.99 299.904 242.299 299.776 242.513 299.52C242.737 299.275 242.849 298.907 242.849 298.416V289.52H244.385V298.384C244.385 299.259 244.15 299.947 243.681 300.448C243.211 300.949 242.545 301.2 241.681 301.2ZM243.617 287.888C243.318 287.888 243.067 287.792 242.865 287.6C242.673 287.408 242.577 287.173 242.577 286.896C242.577 286.619 242.673 286.384 242.865 286.192C243.067 285.989 243.318 285.888 243.617 285.888C243.915 285.888 244.161 285.984 244.353 286.176C244.555 286.357 244.657 286.587 244.657 286.864C244.657 287.152 244.555 287.397 244.353 287.6C244.161 287.792 243.915 287.888 243.617 287.888ZM250.403 289.44C251.577 289.44 252.473 289.728 253.091 290.304C253.721 290.88 254.035 291.739 254.035 292.88V298H252.579V296.88C252.323 297.275 251.955 297.579 251.475 297.792C251.006 297.995 250.446 298.096 249.795 298.096C248.846 298.096 248.083 297.867 247.507 297.408C246.942 296.949 246.659 296.347 246.659 295.6C246.659 294.853 246.931 294.256 247.475 293.808C248.019 293.349 248.883 293.12 250.067 293.12H252.499V292.816C252.499 292.155 252.307 291.648 251.923 291.296C251.539 290.944 250.974 290.768 250.227 290.768C249.726 290.768 249.235 290.853 248.755 291.024C248.275 291.184 247.87 291.403 247.539 291.68L246.899 290.528C247.337 290.176 247.859 289.909 248.467 289.728C249.075 289.536 249.721 289.44 250.403 289.44ZM250.051 296.912C250.638 296.912 251.145 296.784 251.571 296.528C251.998 296.261 252.307 295.888 252.499 295.408V294.224H250.131C248.83 294.224 248.179 294.661 248.179 295.536C248.179 295.963 248.345 296.299 248.675 296.544C249.006 296.789 249.465 296.912 250.051 296.912ZM264.925 286.128V298H263.453V296.656C263.111 297.125 262.679 297.483 262.157 297.728C261.634 297.973 261.058 298.096 260.429 298.096C259.607 298.096 258.871 297.915 258.221 297.552C257.57 297.189 257.058 296.683 256.685 296.032C256.322 295.371 256.141 294.613 256.141 293.76C256.141 292.907 256.322 292.155 256.685 291.504C257.058 290.853 257.57 290.347 258.221 289.984C258.871 289.621 259.607 289.44 260.429 289.44C261.037 289.44 261.597 289.557 262.109 289.792C262.621 290.016 263.047 290.352 263.389 290.8V286.128H264.925ZM260.557 296.752C261.09 296.752 261.575 296.629 262.013 296.384C262.45 296.128 262.791 295.776 263.037 295.328C263.282 294.869 263.405 294.347 263.405 293.76C263.405 293.173 263.282 292.656 263.037 292.208C262.791 291.749 262.45 291.397 262.013 291.152C261.575 290.907 261.09 290.784 260.557 290.784C260.013 290.784 259.522 290.907 259.085 291.152C258.658 291.397 258.317 291.749 258.061 292.208C257.815 292.656 257.693 293.173 257.693 293.76C257.693 294.347 257.815 294.869 258.061 295.328C258.317 295.776 258.658 296.128 259.085 296.384C259.522 296.629 260.013 296.752 260.557 296.752ZM271.463 298.096C270.62 298.096 269.863 297.909 269.191 297.536C268.519 297.163 267.991 296.651 267.607 296C267.234 295.339 267.047 294.592 267.047 293.76C267.047 292.928 267.234 292.187 267.607 291.536C267.991 290.875 268.519 290.363 269.191 290C269.863 289.627 270.62 289.44 271.463 289.44C272.306 289.44 273.058 289.627 273.719 290C274.391 290.363 274.914 290.875 275.287 291.536C275.671 292.187 275.863 292.928 275.863 293.76C275.863 294.592 275.671 295.339 275.287 296C274.914 296.651 274.391 297.163 273.719 297.536C273.058 297.909 272.306 298.096 271.463 298.096ZM271.463 296.752C272.007 296.752 272.492 296.629 272.919 296.384C273.356 296.128 273.698 295.776 273.943 295.328C274.188 294.869 274.311 294.347 274.311 293.76C274.311 293.173 274.188 292.656 273.943 292.208C273.698 291.749 273.356 291.397 272.919 291.152C272.492 290.907 272.007 290.784 271.463 290.784C270.919 290.784 270.428 290.907 269.991 291.152C269.564 291.397 269.223 291.749 268.967 292.208C268.722 292.656 268.599 293.173 268.599 293.76C268.599 294.347 268.722 294.869 268.967 295.328C269.223 295.776 269.564 296.128 269.991 296.384C270.428 296.629 270.919 296.752 271.463 296.752Z" fill="#2E3239"/>
</svg>
