<svg width="80" height="80" viewBox="0 0 80 80" fill="none" xmlns="http://www.w3.org/2000/svg">
<g id="Handshake">
<path id="Vector" d="M36.2127 67.8125C36.1433 68.0812 35.9865 68.3191 35.767 68.4889C35.5475 68.6586 35.2777 68.7505 35.0002 68.75C34.8949 68.7504 34.7899 68.7378 34.6877 68.7125L24.6877 66.2125C24.5486 66.178 24.4165 66.1199 24.2971 66.0406L16.7971 61.0406C16.6604 60.9495 16.5431 60.8324 16.4517 60.6959C16.3603 60.5594 16.2967 60.4063 16.2645 60.2453C16.2322 60.0842 16.2321 59.9184 16.2639 59.7573C16.2958 59.5962 16.3591 59.4429 16.4502 59.3062C16.6342 59.0302 16.9203 58.8386 17.2456 58.7736C17.4066 58.7414 17.5724 58.7412 17.7336 58.7731C17.8947 58.805 18.0479 58.8683 18.1846 58.9594L25.5033 63.8406L35.3127 66.2875C35.4721 66.3283 35.6218 66.4001 35.7534 66.4989C35.8849 66.5977 35.9957 66.7215 36.0793 66.8631C36.1629 67.0048 36.2178 67.1616 36.2406 67.3245C36.2635 67.4874 36.254 67.6532 36.2127 67.8125ZM77.7033 37.5781C77.5498 38.0453 77.305 38.4773 76.9831 38.849C76.6612 39.2208 76.2687 39.5249 75.8283 39.7437L68.2471 43.5375L50.8908 60.8937C50.7365 61.0436 50.5461 61.1511 50.3381 61.2058C50.1301 61.2606 49.9114 61.2607 49.7033 61.2062L29.7033 56.2062C29.5501 56.1692 29.4057 56.1023 29.2783 56.0094L11.8533 43.575L4.17834 39.7344C3.73777 39.5142 3.34487 39.2094 3.0221 38.8375C2.69932 38.4655 2.45298 38.0335 2.29715 37.5663C2.14132 37.0991 2.07905 36.6058 2.11389 36.1145C2.14873 35.6232 2.28 35.1436 2.50021 34.7031L10.2627 19.1781C10.4829 18.7375 10.7876 18.3446 11.1596 18.0219C11.5316 17.6991 11.9635 17.4527 12.4307 17.2969C12.898 17.1411 13.3913 17.0788 13.8826 17.1137C14.3738 17.1485 14.8534 17.2798 15.294 17.5L22.6252 21.1656L39.6565 16.2969C39.8814 16.2344 40.1191 16.2344 40.344 16.2969L57.3752 21.1656L64.7065 17.5C65.147 17.2798 65.6266 17.1485 66.1179 17.1137C66.6091 17.0788 67.1025 17.1411 67.5697 17.2969C68.0369 17.4527 68.4688 17.6991 68.8408 18.0219C69.2128 18.3446 69.5176 18.7375 69.7377 19.1781L77.5002 34.7062C77.722 35.1461 77.8541 35.6257 77.889 36.1171C77.9239 36.6085 77.8608 37.1019 77.7033 37.5687V37.5781ZM5.29396 37.5L11.9408 40.8219L20.8221 23.0594L14.1783 19.7375C14.0316 19.6638 13.8718 19.6197 13.7081 19.6078C13.5444 19.5959 13.3799 19.6164 13.2241 19.668C13.0682 19.7197 12.9241 19.8015 12.7999 19.9089C12.6757 20.0162 12.5739 20.147 12.5002 20.2937L4.73771 35.8219C4.66404 35.9686 4.61998 36.1283 4.60806 36.2921C4.59614 36.4558 4.61659 36.6203 4.66825 36.7761C4.7199 36.932 4.80175 37.0761 4.90911 37.2003C5.01647 37.3245 5.14724 37.4263 5.29396 37.5ZM60.6252 47.6031L50.069 39.1469C44.2783 44.3844 36.7002 45.2437 30.4877 41.275C30.013 40.974 29.612 40.5702 29.3144 40.0933C29.0168 39.6165 28.8302 39.0789 28.7684 38.5202C28.7066 37.9615 28.7711 37.3961 28.9573 36.8658C29.1435 36.3354 29.4465 35.8537 29.844 35.4562L44.1252 21.6031C44.3595 21.3756 44.6736 21.2489 45.0002 21.25H48.5752L40.0002 18.8L23.3721 23.55L14.0971 42.1031L30.5346 53.8437L49.6158 58.6156L60.6252 47.6031ZM65.9752 42.2531L56.7283 23.75H45.5065L31.6033 37.2375C31.4739 37.3672 31.3754 37.5246 31.3153 37.6977C31.2553 37.8709 31.2351 38.0554 31.2565 38.2375C31.2764 38.4271 31.3387 38.6098 31.4388 38.7721C31.5389 38.9343 31.6741 39.072 31.8346 39.175C36.194 41.9594 43.0221 42.75 49.1127 36.6125C49.3302 36.3936 49.621 36.263 49.9291 36.2457C50.2372 36.2284 50.5408 36.3256 50.7815 36.5187L62.4096 45.8312L65.9752 42.2531ZM75.2596 35.8219L67.5002 20.2937C67.4266 20.147 67.3247 20.0162 67.2005 19.9089C67.0763 19.8015 66.9322 19.7197 66.7764 19.668C66.6205 19.6164 66.4561 19.5959 66.2923 19.6078C66.1286 19.6197 65.9688 19.6638 65.8221 19.7375L59.1783 23.0594L68.0596 40.8219L74.7065 37.5C74.8532 37.4263 74.984 37.3245 75.0913 37.2003C75.1987 37.0761 75.2805 36.932 75.3322 36.7761C75.3838 36.6203 75.4043 36.4558 75.3924 36.2921C75.3804 36.1283 75.3364 35.9686 75.2627 35.8219H75.2596Z" fill="#2E3239"/>
</g>
</svg>
