<?xml version="1.0" encoding="UTF-8"?>
<svg id="Layer_2" data-name="Layer 2" xmlns="http://www.w3.org/2000/svg" xmlns:xlink="http://www.w3.org/1999/xlink" viewBox="0 0 217.26 154.54">
  <defs>
    <style>
      .cls-1, .cls-2, .cls-3 {
        fill: none;
      }

      .cls-2 {
        /* opacity: .05; */
        stroke: #fff;
        stroke-miterlimit: 10;
      }

      .cls-3 {
        clip-path: url(#clippath);
      }
    </style>
    <clipPath id="clippath">
      <rect class="cls-1" width="217.26" height="154.54"/>
    </clipPath>
  </defs>
  <g id="Layer_1-2" data-name="Layer 1">
    <g class="cls-3">
      <g>
        <polygon class="cls-2" points="5 212.57 5 188.55 103.63 142.82 103.63 166.83 5 212.57"/>
        <polygon class="cls-2" points="212.26 212.57 212.26 188.55 113.63 142.82 113.63 166.83 212.26 212.57"/>
      </g>
      <g>
        <polygon class="cls-2" points="103.63 135.91 103.63 111.9 5 66.16 5 90.17 103.63 135.91"/>
        <polygon class="cls-2" points="103.63 166.25 103.63 142.24 5 96.5 5 120.51 103.63 166.25"/>
        <polygon class="cls-2" points="5 58.03 5 34.01 103.63 -11.72 103.63 12.29 5 58.03"/>
        <polygon class="cls-2" points="5 88.37 5 64.36 103.63 18.62 103.63 42.63 5 88.37"/>
        <polygon class="cls-2" points="113.63 135.91 113.63 111.9 212.26 66.16 212.26 90.17 113.63 135.91"/>
        <polygon class="cls-2" points="113.63 166.25 113.63 142.24 212.26 96.5 212.26 120.51 113.63 166.25"/>
        <polygon class="cls-2" points="212.26 58.03 212.26 34.01 113.63 -11.72 113.63 12.29 212.26 58.03"/>
        <polygon class="cls-2" points="212.26 88.37 212.26 64.36 113.63 18.62 113.63 42.63 212.26 88.37"/>
      </g>
      <g>
        <polygon class="cls-2" points="103.63 11.72 103.63 -12.29 5 -58.03 5 -34.02 103.63 11.72"/>
        <polygon class="cls-2" points="113.63 11.72 113.63 -12.29 212.26 -58.03 212.26 -34.02 113.63 11.72"/>
      </g>
    </g>
  </g>
</svg>