<svg width="106" height="36" viewBox="0 0 106 36" fill="none" xmlns="http://www.w3.org/2000/svg">
<path d="M5.73173 12.5854C5.35792 13.0453 4.94258 13.4634 4.56877 13.8815C5.44099 14.8432 7.10236 15.8885 7.10236 17.561C7.10236 19.8606 4.02882 21.1986 1.91058 21.1986C0.830685 21.1986 0 20.8223 0 20.0697C0 18.4808 3.15661 17.1847 5.27485 16.8084C4.73491 16.0976 3.90422 15.7213 3.40581 15.0105C2.61666 15.7213 1.86904 16.3484 1.16296 16.7666C1.07989 16.8084 0.955288 16.8502 0.87222 16.8502C0.747617 16.8502 0.706083 16.7666 0.706083 16.6411C0.706083 16.5575 0.747617 16.4739 0.830685 16.3902C1.5783 15.9721 2.36745 15.3449 3.15661 14.6341C3.032 14.3415 2.94893 14.007 2.94893 13.547C2.94893 11.4983 5.6902 9.5331 6.85316 9.5331C7.18543 9.5331 7.3931 9.70035 7.3931 10.0348C7.3931 10.7038 6.56242 11.5819 5.73173 12.5854ZM1.66137 19.4843C1.66137 20.0697 2.24285 20.3206 2.94893 20.3206C4.15343 20.3206 5.73173 19.6098 5.73173 18.3554C5.73173 17.9373 5.64866 17.6028 5.56559 17.3101C3.90422 17.5192 1.66137 18.3554 1.66137 19.4843ZM4.27803 13.547L5.35792 12.3763C5.35792 12.3763 6.43781 11.0801 6.43781 10.7038C6.43781 10.5784 6.27168 10.5366 6.18861 10.5366C5.31639 10.5366 3.98729 11.5819 3.98729 12.7526C3.98729 13.0453 4.07036 13.2962 4.27803 13.547Z" fill="url(#paint0_linear_750_97)"/>
<path d="M16.5001 6.81533C16.9986 6.81533 17.1232 7.10802 17.1232 7.4007C17.1232 8.27875 16.2094 9.36585 15.2541 9.36585C14.7972 9.36585 14.6726 8.98955 14.6726 8.65505C14.6726 7.23345 16.1263 6.81533 16.5001 6.81533ZM10.27 18.439C10.27 18.9408 10.893 18.9408 10.893 18.9408C12.8036 18.9408 17.8708 15.6376 17.8708 15.6376C17.8708 15.6376 17.9123 15.7213 17.9123 15.8467C17.9123 16.0139 17.8708 16.223 17.5385 16.3902C17.5385 16.3902 11.9314 20.2369 9.73005 20.2369C8.85783 20.2369 8.65016 19.6516 8.65016 19.1498C8.65016 17.6028 10.7269 14.5087 12.5959 12.3345C12.5959 12.3345 12.8036 12 13.1359 12C13.6343 12 13.925 12.3763 13.925 12.3763C13.925 12.4599 13.8835 12.5854 13.7589 12.7108C12.7621 13.8397 10.27 17.4774 10.27 18.439Z" fill="url(#paint1_linear_750_97)"/>
<path d="M27.2001 11.2056C27.2001 12.3763 25.1649 13.9652 24.3757 13.9652C24.2511 13.9652 24.085 13.8397 24.085 13.7143C24.085 13.547 24.3757 13.338 24.3757 13.338C25.2064 12.5854 25.4141 12.2509 25.4141 11.9164C25.4141 11.5401 25.1234 11.331 24.7911 11.331C22.7559 11.4146 17.9795 16.2648 17.9795 17.8955C17.9795 18.23 18.1871 18.439 18.644 18.439C19.8485 18.439 22.9636 16.1394 22.9636 16.1394C23.2959 15.8885 24.1681 14.5087 24.625 14.5087C24.9988 14.5505 25.2895 14.6341 25.2895 15.0941C24.0019 17.0174 22.6313 19.3589 21.2607 21.6585C21.8422 21.5749 22.3821 21.5331 22.9636 21.5331C24.2096 21.5331 24.9572 21.9094 24.9572 22.5784C24.9572 23.3728 23.5866 24.9617 22.9221 24.9617C22.7974 24.9617 22.5898 24.8362 22.5898 24.669C22.5898 24.2091 23.5035 24.2091 23.5035 23.2892C23.5035 22.7456 23.1297 22.6202 22.7559 22.6202C22.0083 22.6202 21.3022 22.7038 20.5961 22.8293C16.858 29.3937 13.0369 36 9.79722 36C8.84193 36 8.38505 35.4146 8.38505 34.5366C8.38505 31.4007 13.5768 24.2091 19.6824 22.1185C21.053 19.6098 22.0083 17.6864 22.0083 17.6864C21.0115 18.1882 18.5194 19.7352 17.0657 19.7352C16.4012 19.7352 15.9443 19.4425 15.9443 18.5645C15.9443 16.1394 22.5898 10.2439 26.0371 10.2439C27.2001 10.2439 27.2001 11.2056 27.2001 11.2056ZM9.79722 33.9094C9.79722 34.453 10.0049 34.7875 10.4618 34.7875C12.2893 34.7875 16.235 28.2648 19.0178 23.2892C13.4522 25.3798 9.79722 31.5679 9.79722 33.9094Z" fill="url(#paint2_linear_750_97)"/>
<path d="M26.5878 16.3902C28.4568 15.3031 31.4888 12.4181 32.0288 12.4181C32.4441 12.4181 32.6518 12.7108 32.6518 13.0035C32.6518 14.1742 30.0767 17.561 29.6198 18.439C29.6198 18.439 29.6613 18.4808 29.7028 18.4808C30.2843 18.4808 35.6007 14.0906 36.556 13.5889C36.556 13.5889 36.7637 13.4216 37.0129 13.4216C37.3451 13.4634 37.5113 13.7561 37.5113 14.007C37.5113 14.5505 34.687 17.561 34.687 18.5645C34.687 18.8571 34.9777 18.9408 35.6422 18.9408C37.5528 18.9408 42.62 15.6376 42.62 15.6376C42.62 15.6376 42.6615 15.7213 42.6615 15.8467C42.6615 16.0139 42.62 16.223 42.2877 16.3902C42.2877 16.3902 36.6806 20.2369 34.4793 20.2369C33.524 20.2369 33.1917 19.8188 33.1917 19.2334C33.1917 17.9373 34.8116 15.8049 35.1438 15.2613C28.4568 20.1115 28.1245 20.4878 27.6677 20.4878C27.5015 20.4878 27.4185 20.1951 27.4185 19.9443C27.4185 18.8153 30.6997 14.7596 30.6997 14.0906C30.6997 14.0488 30.6581 14.0488 30.6166 14.0488C30.4505 14.0488 30.2013 14.2578 30.2013 14.2578L28.1245 15.9303C27.7092 16.2648 27.2939 16.5157 26.92 16.7666C26.837 16.8084 26.7124 16.8502 26.6293 16.8502C26.5047 16.8502 26.4632 16.7666 26.4632 16.6411C26.4632 16.5575 26.5047 16.4321 26.5878 16.3902Z" fill="url(#paint3_linear_750_97)"/>
<path d="M49.283 14.5923C49.1169 14.5923 49.0338 14.4251 49.0338 14.2997C49.0338 14.1324 49.1584 14.007 49.1584 14.007C49.6568 13.547 49.906 13.1289 49.906 12.7944C49.906 12.3763 49.6568 12.1672 49.2415 12.1672C47.497 12.1672 42.8452 15.554 42.8452 17.8118C42.8452 18.23 43.0944 18.4808 43.6759 18.4808C45.7526 18.4808 48.2447 15.554 48.5769 15.554C48.8677 15.5958 48.9923 15.7631 48.9923 15.9721C48.9923 16.4321 47.7047 17.561 47.7047 18.5226C47.7047 18.8571 47.9124 18.9408 48.2447 18.9408C50.1552 18.9408 55.2224 15.6376 55.2224 15.6376C55.2224 15.6376 55.2639 15.7213 55.2639 15.8467C55.2639 16.0139 55.2224 16.223 54.8901 16.3902C54.8901 16.3902 49.283 20.2369 47.0817 20.2369C46.2095 20.2369 46.0018 19.6516 46.0018 19.1498C46.0018 18.7317 46.1264 18.3136 46.1679 18.1882C45.9187 18.4808 43.5097 19.9024 42.0145 19.9024C41.1423 19.9024 40.7685 19.4843 40.7685 18.8571C40.7685 15.3449 47.0817 11.2474 49.906 11.2474C50.7367 11.2474 51.2767 11.6237 51.2767 12.4181C51.2767 13.4216 49.5737 14.5923 49.283 14.5923Z" fill="url(#paint4_linear_750_97)"/>
<path d="M54.9206 5.77004C55.1698 5.77004 57.745 5.77004 60.4862 5.72822C62.9783 2.50871 65.4288 0 66.5502 0C66.9656 0 67.1317 0.250872 67.1317 0.627178C67.1317 2.1324 65.8857 3.93031 64.2243 5.6446C66.0103 5.6446 67.3809 5.60279 67.3809 5.60279C69.4992 5.51916 70.6621 5.47735 71.2851 5.47735C71.7836 5.47735 71.9497 5.51916 71.9497 5.6446C71.9497 6.02091 71.7836 6.43903 70.8698 6.48084L63.0614 6.81533C61.2754 8.52962 59.2817 9.99303 58.0357 10.8711C56.2497 13.8397 54.8791 16.6411 54.8791 17.9791C54.8791 18.6899 55.336 18.9408 56.0005 18.9408C57.2466 18.9408 59.2402 17.9791 59.9878 17.6028C61.7323 16.6829 63.3521 15.6376 63.3521 15.6376C63.3521 15.6376 63.3936 15.7213 63.3936 15.8467C63.3936 16.0139 63.3521 16.223 63.0198 16.3902C63.0198 16.3902 61.6907 17.3101 60.1124 18.23C57.5788 19.5261 56.0005 19.9443 54.9622 19.9443C53.0931 19.9443 53.0931 18.6063 53.0931 18.6063C53.0931 16.6411 56.2082 11.3728 59.5309 6.94077C57.5373 7.02439 56.8727 7.02439 56.3328 7.02439C54.1315 7.02439 53.9654 6.85714 53.9654 6.60627C53.9654 6.39721 54.0069 5.81185 54.9206 5.77004ZM65.8442 1.50523C65.8442 1.37979 65.8026 1.29617 65.678 1.29617C65.0135 1.29617 63.3106 3.1777 61.4415 5.68641H63.5182C64.8058 4.26481 65.8442 2.75958 65.8442 1.50523ZM62.3553 6.85714C61.7738 6.85714 61.0262 6.85714 60.5693 6.89896C59.9048 7.86063 59.2817 8.90592 58.6172 9.90941C59.5725 9.19861 60.9846 8.1115 62.3553 6.85714Z" fill="url(#paint5_linear_750_97)"/>
<path d="M67.2703 19.1498C67.3118 18.1882 69.347 15.5958 69.5547 15.3031C69.0978 15.7213 64.6121 19.8188 62.743 19.8188C61.9954 19.8188 61.7047 19.3589 61.7047 18.9408C61.7047 17.7282 64.1552 14.2997 65.8996 11.8746C65.8996 11.8746 66.1073 11.5401 66.4396 11.5401C66.9795 11.7073 67.3949 11.7491 67.3949 11.9582C67.3949 12.0418 67.3118 12.2091 67.1457 12.4599C66.315 13.5889 63.5737 17.3937 63.5737 18.0209C63.5737 18.1463 63.6153 18.5226 63.9891 18.5226C65.775 18.5226 71.1329 13.0453 72.4205 11.3728C72.4205 11.3728 72.5867 11.0801 72.9605 11.0801C73.4173 11.1638 73.7911 11.2892 73.7911 11.4146C71.7144 14.3415 69.2224 17.6028 68.9732 18.5226C68.9732 18.8571 69.1808 18.9408 69.5131 18.9408C71.4237 18.9408 76.4909 15.6376 76.4909 15.6376C76.4909 15.6376 76.5324 15.7213 76.5324 15.8467C76.5324 16.0139 76.4909 16.223 76.1586 16.3902C76.1586 16.3902 70.5515 20.2369 68.3502 20.2369C67.4779 20.2369 67.2703 19.6516 67.2703 19.1498Z" fill="url(#paint6_linear_750_97)"/>
<path d="M75.592 16.7666C75.509 16.8084 75.3844 16.8502 75.3013 16.8502C75.1767 16.8502 75.1352 16.7666 75.1352 16.6411C75.1352 16.5575 75.1767 16.4739 75.2598 16.3902C76.4643 15.7213 77.8349 14.5087 78.9979 13.2544C78.0426 12.9617 77.1288 12.5017 77.1288 11.6237C77.1288 10.2021 79.5378 7.90244 81.1992 7.90244C81.7391 7.90244 82.0299 8.27875 82.0299 8.90592C82.0299 9.82578 81.4484 11.122 80.4931 12.2091C81.5314 12.3763 82.4867 12.5854 82.4867 13.1707C82.4867 13.6725 82.3621 14.0906 81.8637 14.3833C81.0746 14.8432 79.1225 16.5575 79.1225 18.2718C79.1225 18.6063 79.3717 18.9408 79.7039 18.9408C81.6145 18.9408 86.6817 15.6376 86.6817 15.6376C86.6817 15.6376 86.7232 15.7213 86.7232 15.8467C86.7232 16.0139 86.6817 16.223 86.3494 16.3902C86.3494 16.3902 80.7423 20.2369 78.541 20.2369C77.6688 20.2369 77.4611 19.6516 77.4611 19.1498C77.4611 16.5575 81.3238 14.3833 81.3238 13.7979C81.3238 13.6725 81.2407 13.6307 81.0746 13.5889C81.0746 13.5889 80.2854 13.547 79.4547 13.3798C78.2087 14.7178 76.7965 16.0557 75.592 16.7666ZM78.1672 10.9547C78.1672 11.6655 79.0394 11.9582 79.9947 12.1254C80.7008 11.2474 81.0746 10.2857 81.0746 9.61672C81.0746 9.11498 80.8669 8.8223 80.4516 8.8223C79.6624 8.8223 78.1672 9.99303 78.1672 10.9547Z" fill="url(#paint7_linear_750_97)"/>
<path d="M90.3 22.8293C97.9424 22.8293 103.882 15.554 103.882 10.9547C103.882 8.8223 102.636 7.27526 99.6868 7.27526C98.6069 7.27526 97.4439 7.56795 96.3641 8.19512C96.281 8.23693 96.1979 8.23693 96.1148 8.23693C95.9072 8.23693 95.6995 8.1115 95.6995 7.98606C95.6995 7.90244 95.7826 7.81882 95.9902 7.69338C97.3193 6.89896 98.8146 6.52265 100.227 6.52265C104.297 6.52265 106 8.23693 106 10.5784C106 15.5958 98.1916 23.5401 89.4278 23.5401C86.2712 23.5401 84.153 21.993 84.153 20.0279C84.153 18.899 84.8591 17.6028 86.4789 16.4321C86.8527 16.1394 87.3096 15.8467 87.808 15.5122C86.022 15.5122 85.3159 15.0523 85.3159 14.4251C85.3159 12.7108 90.3416 9.57491 93.5813 9.57491C94.1212 9.57491 94.7858 9.65854 94.7858 10.3275C94.7858 11.2892 92.3352 12.3345 92.2937 12.3345C92.1691 12.3345 92.0445 12.2927 91.9199 12C91.9199 11.7909 92.2106 11.6655 92.2106 11.6655C92.2106 11.6655 92.9167 11.2056 92.9167 10.8711C92.9167 10.5366 92.3768 10.453 92.1691 10.453C90.7569 10.453 87.0604 12.7526 87.0604 13.9233C87.0604 14.2997 87.4757 14.5505 88.5141 14.5505C88.8463 14.5505 89.2202 14.5087 89.677 14.4669C89.8432 14.4669 90.0924 14.5087 90.0924 14.676C90.0924 15.0523 88.6802 15.7213 87.5173 16.5157C86.3543 17.3519 85.8559 18.3554 85.8559 19.3171C85.8559 21.1568 87.6834 22.8293 90.3 22.8293Z" fill="url(#paint8_linear_750_97)"/>
<defs>
<linearGradient id="paint0_linear_750_97" x1="0" y1="36.0001" x2="106" y2="36.0001" gradientUnits="userSpaceOnUse">
<stop stop-color="#083050"/>
<stop offset="1" stop-color="#0080B3"/>
</linearGradient>
<linearGradient id="paint1_linear_750_97" x1="0" y1="36.0001" x2="106" y2="36.0001" gradientUnits="userSpaceOnUse">
<stop stop-color="#083050"/>
<stop offset="1" stop-color="#0080B3"/>
</linearGradient>
<linearGradient id="paint2_linear_750_97" x1="0" y1="36.0001" x2="106" y2="36.0001" gradientUnits="userSpaceOnUse">
<stop stop-color="#083050"/>
<stop offset="1" stop-color="#0080B3"/>
</linearGradient>
<linearGradient id="paint3_linear_750_97" x1="0" y1="36.0001" x2="106" y2="36.0001" gradientUnits="userSpaceOnUse">
<stop stop-color="#083050"/>
<stop offset="1" stop-color="#0080B3"/>
</linearGradient>
<linearGradient id="paint4_linear_750_97" x1="0" y1="36.0001" x2="106" y2="36.0001" gradientUnits="userSpaceOnUse">
<stop stop-color="#083050"/>
<stop offset="1" stop-color="#0080B3"/>
</linearGradient>
<linearGradient id="paint5_linear_750_97" x1="0" y1="36.0001" x2="106" y2="36.0001" gradientUnits="userSpaceOnUse">
<stop stop-color="#083050"/>
<stop offset="1" stop-color="#0080B3"/>
</linearGradient>
<linearGradient id="paint6_linear_750_97" x1="0" y1="36.0001" x2="106" y2="36.0001" gradientUnits="userSpaceOnUse">
<stop stop-color="#083050"/>
<stop offset="1" stop-color="#0080B3"/>
</linearGradient>
<linearGradient id="paint7_linear_750_97" x1="0" y1="36.0001" x2="106" y2="36.0001" gradientUnits="userSpaceOnUse">
<stop stop-color="#083050"/>
<stop offset="1" stop-color="#0080B3"/>
</linearGradient>
<linearGradient id="paint8_linear_750_97" x1="0" y1="36.0001" x2="106" y2="36.0001" gradientUnits="userSpaceOnUse">
<stop stop-color="#083050"/>
<stop offset="1" stop-color="#0080B3"/>
</linearGradient>
</defs>
</svg>
