<svg width="84" height="30" viewBox="0 0 84 30" fill="none" xmlns="http://www.w3.org/2000/svg">
<path d="M10.05 13.168C8.95 14.818 7.564 15.72 5.672 16.138C5.782 11.628 6.728 11.628 6.728 10.44C6.728 9.186 5.276 8.196 4.77 7.8C4.374 7.492 4.066 8.592 3.934 9.12C3.56 10.418 2.24 12.398 1.492 13.498C1.14 14.004 1.646 14.466 2.064 13.894C2.658 13.08 3.23 12.178 3.67 11.452C3.67 11.65 3.692 11.76 3.692 11.76C4.088 13.96 3.626 16.556 3.626 16.556C3.626 16.556 0.194 17.216 0.194 19.086C0.194 20.516 1.844 21 2.35 21C3.516 21 5.628 20.296 5.672 17.04C5.672 16.974 5.672 16.93 5.672 16.886C9.038 16.248 10.204 14.202 10.578 13.63C11.04 12.904 10.38 12.684 10.05 13.168ZM0.92 19.218C0.92 17.986 3.604 17.348 3.604 17.348C2.878 20.23 0.92 20.186 0.92 19.218ZM14.1625 9.45C14.4925 9.45 14.4485 9.428 15.1305 8.262C15.8125 7.074 16.4945 6.964 16.5605 6.216C16.6265 5.468 15.0865 4.786 14.5805 4.786C14.0745 4.786 13.0625 5.314 12.9305 6.92C12.7765 8.526 13.6565 9.45 14.1625 9.45ZM16.3845 13.212C14.4265 16.182 10.9505 19.812 10.2905 19.812C7.98045 19.812 12.8645 14.378 13.0185 12.662C13.1725 10.946 12.1825 10.088 11.6545 10.088C11.1265 10.088 11.2365 10.638 11.0825 11.056C10.0485 13.696 7.80445 16.38 7.67245 17.964C7.56245 19.152 7.95845 20.956 9.63045 20.956C11.6545 20.956 16.4285 14.4 16.9125 13.696C17.3745 12.97 16.7145 12.75 16.3845 13.212ZM27.3827 13.3C25.7107 15.808 22.5867 18.822 21.2887 19.636C22.1687 17.986 22.6527 16.622 22.5867 15.918C22.4547 14.312 20.6287 13.96 20.8927 14.356C21.1567 14.774 17.0207 19.812 16.4927 19.812C14.9087 19.812 20.1227 12.31 22.6967 12.31C23.1807 12.31 22.1247 10 20.8487 10C18.3627 10 13.5227 15.852 13.7427 18.382C13.8747 19.944 15.2387 20.956 16.0307 20.956C16.8447 20.956 19.7047 17.304 19.7047 17.304C19.7047 17.304 17.6587 21.264 16.7347 22.298C16.7347 22.298 8.72673 25.862 8.85873 27.314C8.96873 28.744 10.0467 29.47 10.9047 29.47C14.3367 29.47 17.6587 25.708 20.0567 21.814L20.5407 20.978L20.5847 20.912C22.8287 20.186 27.4487 14.422 27.8887 13.762C28.3507 13.058 27.6907 12.816 27.3827 13.3ZM10.2007 28.062C9.80473 28.062 9.47473 27.82 9.43073 27.446C9.36473 26.654 15.9427 23.31 15.9427 23.31C15.9427 23.31 12.3567 28.062 10.2007 28.062ZM31.2317 21C33.4097 21 38.0737 14.334 38.5357 13.63C38.9977 12.904 38.3377 12.684 38.0297 13.168C36.0717 16.094 32.8597 19.878 31.5397 19.878C30.5277 19.878 35.6757 13.3 35.6757 12.222C35.6757 11.144 35.2137 10.022 34.4437 10.022C33.6957 10.022 29.6917 14.092 29.6917 14.092C29.6917 14.092 30.4397 13.366 30.4397 12.288C30.4397 10.088 28.8337 9.252 28.8337 10.022C28.8337 12.222 24.4777 16.776 24.4777 18.58C24.4777 20.318 25.9737 21.946 25.9737 20.318C25.9737 19.284 32.2657 11.958 32.9917 11.958C32.9917 11.958 29.7357 16.358 29.7357 18.206C29.7357 19.856 30.3737 21 31.2317 21ZM42.6616 10.022C40.1976 10.022 34.8516 15.874 34.8516 18.426C34.8516 19.988 36.1276 21 36.9196 21C37.7336 21 40.5056 17.744 40.5056 17.744C40.5056 17.744 40.1316 18.558 40.1316 19.086C40.1316 19.636 41.0116 21 41.9136 21C43.9156 21 48.5136 14.466 48.9976 13.762C49.4596 13.036 48.7996 12.816 48.4696 13.3C46.5336 16.226 43.2336 19.856 42.5516 19.856C41.8476 19.856 43.9156 17.546 43.9156 15.94C43.9156 14.334 42.1116 14.004 42.3536 14.4C42.5736 14.796 38.0196 19.834 37.4916 19.834C35.9076 19.834 41.7596 12.354 44.3336 12.354C44.8176 12.354 43.9596 10.022 42.6616 10.022ZM60.8894 8.328C60.5594 7.14 59.3054 5.666 56.5554 5.666C56.3354 5.666 56.1374 5.666 55.9174 5.666C56.4014 4.72 56.6874 3.994 56.6874 3.62C56.6874 1.398 54.5534 0.627999 54.5534 1.266C54.5534 1.992 53.7834 3.686 52.6834 5.754C51.9134 5.842 50.7474 5.93 49.4274 5.93C47.9094 5.93 46.8094 5.424 46.1714 4.896C45.7974 4.566 45.4454 4.72 45.7094 5.49C46.0394 6.37 46.9414 7.338 49.3834 7.338C50.2634 7.338 51.0774 7.338 51.8474 7.294C49.4274 11.716 46.2594 16.93 46.2594 18.448C46.2594 19.504 46.5234 21 48.1734 21C50.1974 21 55.1254 14.466 55.5874 13.762C56.0714 13.036 55.3894 12.816 55.0814 13.3C53.1234 16.226 49.4934 19.856 48.8334 19.856C47.2274 19.856 52.4414 12.002 55.1474 7.096C55.5874 7.074 56.0494 7.074 56.5114 7.074C58.9534 7.074 60.3394 8.372 60.3394 9.01C60.3394 9.01 61.1094 9.098 60.8894 8.328ZM59.3436 21C61.3456 21 66.1636 14.488 66.6256 13.762C67.1096 13.058 66.4276 12.838 66.1196 13.3C64.1616 16.248 60.5316 20.12 59.8716 20.12C58.5516 20.12 63.5456 14.18 63.6776 12.398C63.8096 10.616 61.9176 9.626 61.8736 10.132C61.6976 12.662 54.9876 20.098 54.4376 20.098C52.9856 20.098 58.1556 13.938 58.2876 12.178C58.4196 10.418 56.4176 9.648 56.3736 10.154C56.2196 12.222 52.3476 17.106 52.2376 18.646C52.1056 20.318 53.0956 21 54.0416 21C55.3836 21 58.0016 17.326 58.0016 17.326C57.1216 18.47 57.7596 21 59.3436 21ZM74.4765 25.598C74.2565 25.994 73.6405 26.544 72.3425 26.544C71.0445 26.544 68.9545 25.598 68.9545 21.792C68.9545 17.986 71.9025 13.938 72.9145 12.794C73.9045 11.672 72.1665 10.396 71.8145 10.088C71.4405 9.78 71.1765 10.11 70.8685 10.286C70.4065 10.55 67.4805 12.068 67.4805 12.068C67.4805 12.068 70.5385 7.954 70.5385 6.172C70.5385 5.27 69.8565 4.742 69.0425 4.742C67.5245 4.742 64.9065 7.184 64.9065 10.638C64.9065 13.058 65.9845 13.41 66.6005 13.41C67.8545 13.41 68.9765 13.036 69.6145 12.75C68.5585 14.356 66.6225 17.722 66.6225 20.824C66.6225 25.092 69.7245 27.204 72.0345 27.204C74.3445 27.204 74.9385 25.642 74.9385 25.642C74.9385 25.642 74.7185 25.202 74.4765 25.598ZM66.5785 10.55C66.5785 9.472 68.1185 7.316 68.8665 7.316C69.6145 7.316 68.2505 9.406 66.9745 11.738C66.9745 11.738 66.5785 11.32 66.5785 10.55ZM82.2655 13.322C80.3295 16.248 76.3695 19.68 74.8955 19.68C73.7515 19.68 74.5655 18.206 74.5655 18.206C75.7095 18.206 80.3735 14.598 80.3735 12.508C80.3735 10.418 79.4055 10.022 78.8335 10.022C77.3815 10.022 72.1235 14.29 72.1235 18.272C72.1235 20.978 74.2355 21 74.2355 21C77.0295 21 82.3315 14.51 82.7935 13.784C83.2555 13.08 82.5955 12.838 82.2655 13.322ZM78.6135 12.75C79.3395 12.75 77.9315 15.61 74.9395 17.37C74.9395 17.37 77.8655 12.75 78.6135 12.75Z" fill="url(#paint0_linear_105_101)"/>
<defs>
<linearGradient id="paint0_linear_105_101" x1="-1.5" y1="26.0001" x2="79.5" y2="26.0001" gradientUnits="userSpaceOnUse">
<stop stop-color="#083050"/>
<stop offset="1" stop-color="#0080B3"/>
</linearGradient>
</defs>
</svg>
