<?xml version="1.0" encoding="UTF-8" standalone="no"?>
<svg
   width="106"
   height="36"
   viewBox="0 0 106 36"
   fill="none"
   version="1.1"
   id="svg22"
   sodipodi:docname="signature-white.svg"
   inkscape:version="1.2.2 (732a01da63, 2022-12-09)"
   xmlns:inkscape="http://www.inkscape.org/namespaces/inkscape"
   xmlns:sodipodi="http://sodipodi.sourceforge.net/DTD/sodipodi-0.dtd"
   xmlns="http://www.w3.org/2000/svg"
   xmlns:svg="http://www.w3.org/2000/svg">
  <defs
     id="defs26" />
  <sodipodi:namedview
     id="namedview24"
     pagecolor="#ffffff"
     bordercolor="#000000"
     borderopacity="0.25"
     inkscape:showpageshadow="2"
     inkscape:pageopacity="0.0"
     inkscape:pagecheckerboard="0"
     inkscape:deskcolor="#d1d1d1"
     showgrid="false"
     inkscape:zoom="4.3693862"
     inkscape:cx="31.926681"
     inkscape:cy="23.000942"
     inkscape:window-width="1920"
     inkscape:window-height="991"
     inkscape:window-x="-9"
     inkscape:window-y="-9"
     inkscape:window-maximized="1"
     inkscape:current-layer="svg22" />
  <g
     id="Frame 125"
     transform="translate(0,-13)">
    <g
       id="signature">
      <path
         d="m 5.73173,25.5854 c -0.37381,0.4599 -0.78915,0.878 -1.16296,1.2961 0.87222,0.9617 2.53359,2.007 2.53359,3.6795 0,2.2996 -3.07354,3.6376 -5.19178,3.6376 C 0.830685,34.1986 0,33.8223 0,33.0697 0,31.4808 3.15661,30.1847 5.27485,29.8084 4.73491,29.0976 3.90422,28.7213 3.40581,28.0105 c -0.78915,0.7108 -1.53677,1.3379 -2.24285,1.7561 -0.08307,0.0418 -0.207672,0.0836 -0.29074,0.0836 -0.124603,0 -0.166137,-0.0836 -0.166137,-0.2091 0,-0.0836 0.041534,-0.1672 0.124602,-0.2509 C 1.5783,28.9721 2.36745,28.3449 3.15661,27.6341 3.032,27.3415 2.94893,27.007 2.94893,26.547 c 0,-2.0487 2.74127,-4.0139 3.90423,-4.0139 0.33227,0 0.53994,0.1672 0.53994,0.5017 0,0.669 -0.83068,1.5471 -1.66137,2.5506 z m -4.07036,6.8989 c 0,0.5854 0.58148,0.8363 1.28756,0.8363 1.2045,0 2.7828,-0.7108 2.7828,-1.9652 0,-0.4181 -0.08307,-0.7526 -0.16614,-1.0453 -1.66137,0.2091 -3.90422,1.0453 -3.90422,2.1742 z M 4.27803,26.547 5.35792,25.3763 c 0,0 1.07989,-1.2962 1.07989,-1.6725 0,-0.1254 -0.16613,-0.1672 -0.2492,-0.1672 -0.87222,0 -2.20132,1.0453 -2.20132,2.216 0,0.2927 0.08307,0.5436 0.29074,0.7944 z"
         fill="#ffffff"
         id="path2" />
      <path
         d="m 16.5001,19.8153 c 0.4985,0 0.6231,0.2927 0.6231,0.5854 0,0.878 -0.9138,1.9652 -1.8691,1.9652 -0.4569,0 -0.5815,-0.3764 -0.5815,-0.7108 0,-1.4217 1.4537,-1.8398 1.8275,-1.8398 z M 10.27,31.439 c 0,0.5018 0.623,0.5018 0.623,0.5018 1.9106,0 6.9778,-3.3032 6.9778,-3.3032 0,0 0.0415,0.0837 0.0415,0.2091 0,0.1672 -0.0415,0.3763 -0.3738,0.5435 0,0 -5.6071,3.8467 -7.80845,3.8467 -0.87222,0 -1.07989,-0.5853 -1.07989,-1.0871 0,-1.547 2.07674,-4.6411 3.94574,-6.8153 0,0 0.2077,-0.3345 0.54,-0.3345 0.4984,0 0.7891,0.3763 0.7891,0.3763 0,0.0836 -0.0415,0.2091 -0.1661,0.3345 -0.9968,1.1289 -3.4889,4.7666 -3.4889,5.7282 z"
         fill="#ffffff"
         id="path4" />
      <path
         d="m 27.2001,24.2056 c 0,1.1707 -2.0352,2.7596 -2.8244,2.7596 -0.1246,0 -0.2907,-0.1255 -0.2907,-0.2509 0,-0.1673 0.2907,-0.3763 0.2907,-0.3763 0.8307,-0.7526 1.0384,-1.0871 1.0384,-1.4216 0,-0.3763 -0.2907,-0.5854 -0.623,-0.5854 -2.0352,0.0836 -6.8116,4.9338 -6.8116,6.5645 0,0.3345 0.2076,0.5435 0.6645,0.5435 1.2045,0 4.3196,-2.2996 4.3196,-2.2996 0.3323,-0.2509 1.2045,-1.6307 1.6614,-1.6307 0.3738,0.0418 0.6645,0.1254 0.6645,0.5854 -1.2876,1.9233 -2.6582,4.2648 -4.0288,6.5644 0.5815,-0.0836 1.1214,-0.1254 1.7029,-0.1254 1.246,0 1.9936,0.3763 1.9936,1.0453 0,0.7944 -1.3706,2.3833 -2.0351,2.3833 -0.1247,0 -0.3323,-0.1255 -0.3323,-0.2927 0,-0.4599 0.9137,-0.4599 0.9137,-1.3798 0,-0.5436 -0.3738,-0.669 -0.7476,-0.669 -0.7476,0 -1.4537,0.0836 -2.1598,0.2091 C 16.858,42.3937 13.0369,49 9.79722,49 8.84193,49 8.38505,48.4146 8.38505,47.5366 c 0,-3.1359 5.19175,-10.3275 11.29735,-12.4181 1.3706,-2.5087 2.3259,-4.4321 2.3259,-4.4321 -0.9968,0.5018 -3.4889,2.0488 -4.9426,2.0488 -0.6645,0 -1.1214,-0.2927 -1.1214,-1.1707 0,-2.4251 6.6455,-8.3206 10.0928,-8.3206 1.163,0 1.163,0.9617 1.163,0.9617 z M 9.79722,46.9094 c 0,0.5436 0.20768,0.8781 0.66458,0.8781 1.8275,0 5.7732,-6.5227 8.556,-11.4983 -5.5656,2.0906 -9.22058,8.2787 -9.22058,10.6202 z"
         fill="#ffffff"
         id="path6" />
      <path
         d="m 26.5878,29.3902 c 1.869,-1.0871 4.901,-3.9721 5.441,-3.9721 0.4153,0 0.623,0.2927 0.623,0.5854 0,1.1707 -2.5751,4.5575 -3.032,5.4355 0,0 0.0415,0.0418 0.083,0.0418 0.5815,0 5.8979,-4.3902 6.8532,-4.8919 0,0 0.2077,-0.1673 0.4569,-0.1673 0.3322,0.0418 0.4984,0.3345 0.4984,0.5854 0,0.5435 -2.8243,3.554 -2.8243,4.5575 0,0.2926 0.2907,0.3763 0.9552,0.3763 1.9106,0 6.9778,-3.3032 6.9778,-3.3032 0,0 0.0415,0.0837 0.0415,0.2091 0,0.1672 -0.0415,0.3763 -0.3738,0.5435 0,0 -5.6071,3.8467 -7.8084,3.8467 -0.9553,0 -1.2876,-0.4181 -1.2876,-1.0035 0,-1.2961 1.6199,-3.4285 1.9521,-3.9721 -6.687,4.8502 -7.0193,5.2265 -7.4761,5.2265 -0.1662,0 -0.2492,-0.2927 -0.2492,-0.5435 0,-1.129 3.2812,-5.1847 3.2812,-5.8537 0,-0.0418 -0.0416,-0.0418 -0.0831,-0.0418 -0.1661,0 -0.4153,0.209 -0.4153,0.209 l -2.0768,1.6725 c -0.4153,0.3345 -0.8306,0.5854 -1.2045,0.8363 -0.083,0.0418 -0.2076,0.0836 -0.2907,0.0836 -0.1246,0 -0.1661,-0.0836 -0.1661,-0.2091 0,-0.0836 0.0415,-0.209 0.1246,-0.2509 z"
         fill="#ffffff"
         id="path8" />
      <path
         d="m 49.283,27.5923 c -0.1661,0 -0.2492,-0.1672 -0.2492,-0.2926 0,-0.1673 0.1246,-0.2927 0.1246,-0.2927 0.4984,-0.46 0.7476,-0.8781 0.7476,-1.2126 0,-0.4181 -0.2492,-0.6272 -0.6645,-0.6272 -1.7445,0 -6.3963,3.3868 -6.3963,5.6446 0,0.4182 0.2492,0.669 0.8307,0.669 2.0767,0 4.5688,-2.9268 4.901,-2.9268 0.2908,0.0418 0.4154,0.2091 0.4154,0.4181 0,0.46 -1.2876,1.5889 -1.2876,2.5505 0,0.3345 0.2077,0.4182 0.54,0.4182 1.9105,0 6.9777,-3.3032 6.9777,-3.3032 0,0 0.0415,0.0837 0.0415,0.2091 0,0.1672 -0.0415,0.3763 -0.3738,0.5435 0,0 -5.6071,3.8467 -7.8084,3.8467 -0.8722,0 -1.0799,-0.5853 -1.0799,-1.0871 0,-0.4181 0.1246,-0.8362 0.1661,-0.9616 -0.2492,0.2926 -2.6582,1.7142 -4.1534,1.7142 -0.8722,0 -1.246,-0.4181 -1.246,-1.0453 0,-3.5122 6.3132,-7.6097 9.1375,-7.6097 0.8307,0 1.3707,0.3763 1.3707,1.1707 0,1.0035 -1.703,2.1742 -1.9937,2.1742 z"
         fill="#ffffff"
         id="path10" />
      <path
         d="m 54.9206,18.77 c 0.2492,0 2.8244,0 5.5656,-0.0418 C 62.9783,15.5087 65.4288,13 66.5502,13 c 0.4154,0 0.5815,0.2509 0.5815,0.6272 0,1.5052 -1.246,3.3031 -2.9074,5.0174 1.786,0 3.1566,-0.0418 3.1566,-0.0418 2.1183,-0.0836 3.2812,-0.1254 3.9042,-0.1254 0.4985,0 0.6646,0.0418 0.6646,0.1672 0,0.3763 -0.1661,0.7944 -1.0799,0.8362 l -7.8084,0.3345 c -1.786,1.7143 -3.7797,3.1777 -5.0257,4.0558 -1.786,2.9686 -3.1566,5.77 -3.1566,7.108 0,0.7108 0.4569,0.9617 1.1214,0.9617 1.2461,0 3.2397,-0.9617 3.9873,-1.338 1.7445,-0.9199 3.3643,-1.9652 3.3643,-1.9652 0,0 0.0415,0.0837 0.0415,0.2091 0,0.1672 -0.0415,0.3763 -0.3738,0.5435 0,0 -1.3291,0.9199 -2.9074,1.8398 -2.5336,1.2961 -4.1119,1.7143 -5.1502,1.7143 -1.8691,0 -1.8691,-1.338 -1.8691,-1.338 0,-1.9652 3.1151,-7.2335 6.4378,-11.6655 -1.9936,0.0836 -2.6582,0.0836 -3.1981,0.0836 -2.2013,0 -2.3674,-0.1673 -2.3674,-0.4181 0,-0.2091 0.0415,-0.7945 0.9552,-0.8363 z m 10.9236,-4.2648 c 0,-0.1254 -0.0416,-0.209 -0.1662,-0.209 -0.6645,0 -2.3674,1.8815 -4.2365,4.3902 h 2.0767 c 1.2876,-1.4216 2.326,-2.9268 2.326,-4.1812 z m -3.4889,5.3519 c -0.5815,0 -1.3291,0 -1.786,0.0419 -0.6645,0.9616 -1.2876,2.0069 -1.9521,3.0104 0.9553,-0.7108 2.3674,-1.7979 3.7381,-3.0523 z"
         fill="#ffffff"
         id="path12" />
      <path
         d="m 67.2703,32.1498 c 0.0415,-0.9616 2.0767,-3.554 2.2844,-3.8467 -0.4569,0.4182 -4.9426,4.5157 -6.8117,4.5157 -0.7476,0 -1.0383,-0.4599 -1.0383,-0.878 0,-1.2126 2.4505,-4.6411 4.1949,-7.0662 0,0 0.2077,-0.3345 0.54,-0.3345 0.5399,0.1672 0.9553,0.209 0.9553,0.4181 0,0.0836 -0.0831,0.2509 -0.2492,0.5017 -0.8307,1.129 -3.572,4.9338 -3.572,5.561 0,0.1254 0.0416,0.5017 0.4154,0.5017 1.7859,0 7.1438,-5.4773 8.4314,-7.1498 0,0 0.1662,-0.2927 0.54,-0.2927 0.4568,0.0837 0.8306,0.2091 0.8306,0.3345 -2.0767,2.9269 -4.5687,6.1882 -4.8179,7.108 0,0.3345 0.2076,0.4182 0.5399,0.4182 1.9106,0 6.9778,-3.3032 6.9778,-3.3032 0,0 0.0415,0.0837 0.0415,0.2091 0,0.1672 -0.0415,0.3763 -0.3738,0.5435 0,0 -5.6071,3.8467 -7.8084,3.8467 -0.8723,0 -1.0799,-0.5853 -1.0799,-1.0871 z"
         fill="#ffffff"
         id="path14" />
      <path
         d="m 75.592,29.7666 c -0.083,0.0418 -0.2076,0.0836 -0.2907,0.0836 -0.1246,0 -0.1661,-0.0836 -0.1661,-0.2091 0,-0.0836 0.0415,-0.1672 0.1246,-0.2509 1.2045,-0.6689 2.5751,-1.8815 3.7381,-3.1358 -0.9553,-0.2927 -1.8691,-0.7527 -1.8691,-1.6307 0,-1.4216 2.409,-3.7213 4.0704,-3.7213 0.5399,0 0.8307,0.3763 0.8307,1.0035 0,0.9199 -0.5815,2.2161 -1.5368,3.3032 1.0383,0.1672 1.9936,0.3763 1.9936,0.9616 0,0.5018 -0.1246,0.9199 -0.623,1.2126 -0.7891,0.4599 -2.7412,2.1742 -2.7412,3.8885 0,0.3345 0.2492,0.669 0.5814,0.669 1.9106,0 6.9778,-3.3032 6.9778,-3.3032 0,0 0.0415,0.0837 0.0415,0.2091 0,0.1672 -0.0415,0.3763 -0.3738,0.5435 0,0 -5.6071,3.8467 -7.8084,3.8467 -0.8722,0 -1.0799,-0.5853 -1.0799,-1.0871 0,-2.5923 3.8627,-4.7665 3.8627,-5.3519 0,-0.1254 -0.0831,-0.1672 -0.2492,-0.209 0,0 -0.7892,-0.0419 -1.6199,-0.2091 -1.246,1.338 -2.6582,2.6759 -3.8627,3.3868 z m 2.5752,-5.8119 c 0,0.7108 0.8722,1.0035 1.8275,1.1707 0.7061,-0.878 1.0799,-1.8397 1.0799,-2.5087 0,-0.5017 -0.2077,-0.7944 -0.623,-0.7944 -0.7892,0 -2.2844,1.1707 -2.2844,2.1324 z"
         fill="#ffffff"
         id="path16" />
      <path
         d="m 90.3,35.8293 c 7.6424,0 13.582,-7.2753 13.582,-11.8746 0,-2.1324 -1.246,-3.6794 -4.1952,-3.6794 -1.0799,0 -2.2429,0.2926 -3.3227,0.9198 -0.0831,0.0418 -0.1662,0.0418 -0.2493,0.0418 -0.2076,0 -0.4153,-0.1254 -0.4153,-0.2508 0,-0.0837 0.0831,-0.1673 0.2907,-0.2927 1.3291,-0.7944 2.8244,-1.1708 4.2368,-1.1708 4.07,0 5.773,1.7143 5.773,4.0558 0,5.0174 -7.8084,12.9617 -16.5722,12.9617 -3.1566,0 -5.2748,-1.5471 -5.2748,-3.5122 0,-1.1289 0.7061,-2.4251 2.3259,-3.5958 0.3738,-0.2927 0.8307,-0.5854 1.3291,-0.9199 -1.786,0 -2.4921,-0.4599 -2.4921,-1.0871 0,-1.7143 5.0257,-4.8502 8.2654,-4.8502 0.5399,0 1.2045,0.0836 1.2045,0.7526 0,0.9617 -2.4506,2.007 -2.4921,2.007 -0.1246,0 -0.2492,-0.0418 -0.3738,-0.3345 0,-0.2091 0.2907,-0.3345 0.2907,-0.3345 0,0 0.7061,-0.4599 0.7061,-0.7944 0,-0.3345 -0.5399,-0.4181 -0.7476,-0.4181 -1.4122,0 -5.1087,2.2996 -5.1087,3.4703 0,0.3764 0.4153,0.6272 1.4537,0.6272 0.3322,0 0.7061,-0.0418 1.1629,-0.0836 0.1662,0 0.4154,0.0418 0.4154,0.2091 0,0.3763 -1.4122,1.0453 -2.5751,1.8397 -1.163,0.8362 -1.6614,1.8397 -1.6614,2.8014 0,1.8397 1.8275,3.5122 4.4441,3.5122 z"
         fill="#ffffff"
         id="path18" />
    </g>
  </g>
</svg>
