<svg width="100" height="100" viewBox="0 0 100 100" fill="none" xmlns="http://www.w3.org/2000/svg">
<g id="SwimmingPool">
<path id="Vector" d="M34.375 56.793C34.7894 56.793 35.1868 56.6283 35.4799 56.3353C35.7729 56.0423 35.9375 55.6449 35.9375 55.2305V48.4375H64.0625V55.9727C64.0625 56.3871 64.2271 56.7845 64.5201 57.0775C64.8132 57.3705 65.2106 57.5352 65.625 57.5352C66.0394 57.5352 66.4368 57.3705 66.7299 57.0775C67.0229 56.7845 67.1875 56.3871 67.1875 55.9727V12.5C67.1875 12.0856 67.0229 11.6882 66.7299 11.3951C66.4368 11.1021 66.0394 10.9375 65.625 10.9375C65.2106 10.9375 64.8132 11.1021 64.5201 11.3951C64.2271 11.6882 64.0625 12.0856 64.0625 12.5V20.3125H35.9375V12.5C35.9375 12.0856 35.7729 11.6882 35.4799 11.3951C35.1868 11.1021 34.7894 10.9375 34.375 10.9375C33.9606 10.9375 33.5632 11.1021 33.2701 11.3951C32.9771 11.6882 32.8125 12.0856 32.8125 12.5V55.2305C32.8125 55.6449 32.9771 56.0423 33.2701 56.3353C33.5632 56.6283 33.9606 56.793 34.375 56.793ZM35.9375 45.3125V35.9375H64.0625V45.3125H35.9375ZM64.0625 23.4375V32.8125H35.9375V23.4375H64.0625ZM10.9375 65.625C10.9375 65.2106 11.1021 64.8132 11.3951 64.5201C11.6882 64.2271 12.0856 64.0625 12.5 64.0625C17.6602 64.0625 20.3594 65.8633 22.7422 67.4492C25.0469 68.9844 27.0391 70.3125 31.25 70.3125C35.4609 70.3125 37.4531 68.9844 39.7578 67.4492C42.1367 65.8633 44.8359 64.0625 49.9961 64.0625C55.1562 64.0625 57.8594 65.8633 60.2383 67.4492C62.543 68.9844 64.5352 70.3125 68.75 70.3125C72.9648 70.3125 74.9531 68.9844 77.2578 67.4492C79.6406 65.8633 82.3359 64.0625 87.5 64.0625C87.9144 64.0625 88.3118 64.2271 88.6049 64.5201C88.8979 64.8132 89.0625 65.2106 89.0625 65.625C89.0625 66.0394 88.8979 66.4368 88.6049 66.7299C88.3118 67.0229 87.9144 67.1875 87.5 67.1875C83.2852 67.1875 81.2969 68.5156 78.9922 70.0508C76.6094 71.6367 73.9141 73.4375 68.75 73.4375C63.5859 73.4375 60.8867 71.6367 58.5078 70.0508C56.2031 68.5156 54.2109 67.1875 49.9961 67.1875C45.7812 67.1875 43.793 68.5156 41.4883 70.0508C39.1094 71.6367 36.4102 73.4375 31.25 73.4375C26.0898 73.4375 23.3906 71.6367 21.0078 70.0508C18.7031 68.5156 16.7148 67.1875 12.5 67.1875C12.0856 67.1875 11.6882 67.0229 11.3951 66.7299C11.1021 66.4368 10.9375 66.0394 10.9375 65.625ZM89.0625 81.25C89.0625 81.6644 88.8979 82.0618 88.6049 82.3549C88.3118 82.6479 87.9144 82.8125 87.5 82.8125C83.2852 82.8125 81.2969 84.1406 78.9922 85.6758C76.6094 87.2617 73.9141 89.0625 68.75 89.0625C63.5859 89.0625 60.8867 87.2617 58.5078 85.6758C56.2031 84.1406 54.2109 82.8125 49.9961 82.8125C45.7812 82.8125 43.793 84.1406 41.4883 85.6758C39.1094 87.2617 36.4102 89.0625 31.25 89.0625C26.0898 89.0625 23.3906 87.2617 21.0078 85.6758C18.7031 84.1406 16.7148 82.8125 12.5 82.8125C12.0856 82.8125 11.6882 82.6479 11.3951 82.3549C11.1021 82.0618 10.9375 81.6644 10.9375 81.25C10.9375 80.8356 11.1021 80.4382 11.3951 80.1451C11.6882 79.8521 12.0856 79.6875 12.5 79.6875C17.6602 79.6875 20.3594 81.4883 22.7422 83.0742C25.0469 84.6094 27.0391 85.9375 31.25 85.9375C35.4609 85.9375 37.4531 84.6094 39.7578 83.0742C42.1367 81.4883 44.8359 79.6875 49.9961 79.6875C55.1562 79.6875 57.8594 81.4883 60.2383 83.0742C62.543 84.6094 64.5352 85.9375 68.75 85.9375C72.9648 85.9375 74.9531 84.6094 77.2578 83.0742C79.6406 81.4883 82.3359 79.6875 87.5 79.6875C87.9144 79.6875 88.3118 79.8521 88.6049 80.1451C88.8979 80.4382 89.0625 80.8356 89.0625 81.25Z" fill="#083050"/>
</g>
</svg>
